<svg width="40" height="52" viewBox="0 0 40 52" fill="none" xmlns="http://www.w3.org/2000/svg">
<path d="M16.9769 2.93452H17.1135C17.3665 2.93452 17.6397 2.95995 17.9104 2.98284C19.103 3.06695 20.2873 3.24551 21.452 3.51685V0.653528C20.2527 0.352628 19.0296 0.157776 17.7965 0.0712015C17.3285 0.0356008 16.8302 0.0127146 16.3192 0H15.8917C13.4168 0.00930695 10.9526 0.327052 8.55545 0.945963C5.82521 1.62687 3.20457 2.69275 0.771484 4.11189V32.5086C3.11421 31.2357 5.60704 30.2643 8.19117 29.6173C10.2315 29.0967 12.3174 28.7765 14.4193 28.6612H14.5028C14.8545 28.6434 15.2061 28.6332 15.5678 28.6306V25.7216C12.8366 25.7567 10.1192 26.1178 7.47273 26.7972C6.49372 27.0515 5.54761 27.3261 4.65967 27.6313L3.64778 27.9746V5.83344L4.08036 5.62492C7.38159 4.05951 10.9521 3.14863 14.5964 2.94215C14.6267 2.93994 14.6572 2.93994 14.6875 2.94215C15.0897 2.92181 15.4945 2.91163 15.8917 2.91163H16.3268H16.347C16.557 2.91672 16.7669 2.92181 16.9769 2.93452Z" fill="#AFB1B8"/>
<path d="M24.1105 5.93259C23.4452 5.93259 22.7875 5.9097 22.1525 5.86138C21.3936 5.80544 20.6145 5.7139 19.8758 5.58929C19.4255 5.51301 18.9828 5.42146 18.5527 5.32229V33.3935C20.3734 33.8443 22.2431 34.0647 24.1181 34.0496C26.5928 34.0395 29.0568 33.7227 31.4543 33.1061C34.1851 32.4243 36.8064 31.3585 39.2408 29.9402V2.04956C36.8984 3.32178 34.4066 4.29396 31.8237 4.94339C29.3029 5.59083 26.7123 5.92307 24.1105 5.93259ZM35.3349 6.41828L36.3468 6.07753V28.2263L35.9142 28.4348C34.2549 29.2243 32.5221 29.8469 30.7409 30.2937C28.5779 30.8533 26.3542 31.1412 24.1207 31.1506C23.4528 31.1506 22.79 31.1227 22.1475 31.0667L21.4543 31.0057V28.3178V8.22883L22.2613 8.28224C22.8482 8.32038 23.4553 8.33818 24.1156 8.33818C26.9512 8.3281 29.7746 7.96596 32.5219 7.25998C33.4655 7.01078 34.404 6.73106 35.3349 6.41828Z" fill="#AFB1B8"/>
<path d="M2.73726 42.2123C2.59178 42.0614 2.41641 41.9429 2.22248 41.8645C2.02856 41.7861 1.82042 41.7495 1.61153 41.7571C1.38892 41.7541 1.16793 41.7956 0.961389 41.8791C0.772023 41.9546 0.599889 42.0679 0.455444 42.2123C0.312573 42.3571 0.201414 42.5303 0.12911 42.7208C0.0498013 42.9205 0.0102645 43.1339 0.0127426 43.3489V47.143C0.0036949 47.4103 0.0547102 47.6763 0.161996 47.9211C0.251555 48.1155 0.380847 48.2888 0.541455 48.4297C0.693075 48.5573 0.8711 48.6494 1.06258 48.6992C1.24706 48.7511 1.43768 48.7776 1.62924 48.7781C1.84053 48.7802 2.04965 48.735 2.24143 48.6458C2.43107 48.5629 2.60289 48.4437 2.74737 48.2949C2.88826 48.1475 3.00064 47.975 3.07877 47.7863C3.15985 47.595 3.20117 47.3891 3.2002 47.1811V46.7564H2.20854V47.0947C2.21149 47.2101 2.19172 47.3251 2.15036 47.4329C2.11807 47.5136 2.06889 47.5865 2.00617 47.6465C1.94474 47.6961 1.87428 47.7332 1.79873 47.7558C1.73176 47.7781 1.66182 47.7901 1.59129 47.7914C1.50275 47.8017 1.41308 47.7883 1.33134 47.7526C1.24961 47.7169 1.17871 47.6601 1.12582 47.588C1.03234 47.4355 0.986517 47.2583 0.994276 47.0794V43.5422C0.988124 43.3461 1.02981 43.1514 1.1157 42.9751C1.16718 42.8951 1.24002 42.8311 1.3259 42.7907C1.41178 42.7502 1.50725 42.7348 1.60141 42.7463C1.68689 42.7432 1.77182 42.7611 1.84893 42.7983C1.92603 42.8355 1.99301 42.8909 2.04411 42.9599C2.15508 43.1056 2.2131 43.285 2.20854 43.4685V43.7965H3.19008V43.41C3.19207 43.183 3.15085 42.9577 3.06865 42.7463C2.99539 42.5475 2.88264 42.3658 2.73726 42.2123Z" fill="#AFB1B8"/>
<path d="M8.62867 42.1692C8.31247 41.9022 7.91337 41.7547 7.50042 41.7522C7.29843 41.7531 7.09813 41.7892 6.90846 41.859C6.71589 41.928 6.53816 42.0333 6.38481 42.1692C6.22052 42.3169 6.08943 42.4981 6.00029 42.7007C5.90039 42.9325 5.85121 43.1831 5.8561 43.4356V47.0745C5.84926 47.3305 5.89848 47.5849 6.00029 47.8196C6.09003 48.0153 6.22127 48.1889 6.38481 48.3282C6.53641 48.4689 6.71444 48.5779 6.90846 48.6486C7.09813 48.7184 7.29843 48.7545 7.50042 48.7554C7.70244 48.755 7.90282 48.7188 8.09237 48.6486C8.28971 48.5769 8.4717 48.4681 8.62867 48.3282C8.78685 48.1862 8.9143 48.0131 9.00307 47.8196C9.10488 47.5849 9.15411 47.3305 9.14727 47.0745V43.4356C9.15215 43.1831 9.10297 42.9325 9.00307 42.7007C8.91481 42.5002 8.78751 42.3195 8.62867 42.1692ZM8.16573 47.0745C8.17409 47.1715 8.1607 47.2691 8.12655 47.3602C8.09241 47.4513 8.03837 47.5336 7.96842 47.6009C7.83743 47.7107 7.67226 47.7709 7.50168 47.7709C7.3311 47.7709 7.16593 47.7107 7.03495 47.6009C6.965 47.5336 6.91096 47.4513 6.87681 47.3602C6.84266 47.2691 6.82927 47.1715 6.83763 47.0745V43.4356C6.82927 43.3386 6.84266 43.241 6.87681 43.1499C6.91096 43.0588 6.965 42.9765 7.03495 42.9092C7.16593 42.7994 7.3311 42.7392 7.50168 42.7392C7.67226 42.7392 7.83743 42.7994 7.96842 42.9092C8.03837 42.9765 8.09241 43.0588 8.12655 43.1499C8.1607 43.241 8.17409 43.3386 8.16573 43.4356V47.0745Z" fill="#AFB1B8"/>
<path d="M16.367 48.6993V41.8105H15.4133L14.1611 45.4571H14.1434L12.8811 41.8105H11.9375V48.6993H12.9216V44.5086H12.9393L13.9031 47.4711H14.3939L15.3653 44.5086H15.383V48.6993H16.367Z" fill="#AFB1B8"/>
<path d="M21.9577 42.2938C21.8062 42.1238 21.6149 41.9944 21.4011 41.9174C21.1708 41.8425 20.9298 41.8064 20.6878 41.8106H19.2256V48.6994H20.2071V46.009H20.7131C21.0193 46.0229 21.324 45.9582 21.5985 45.8208C21.8216 45.6969 22.0077 45.5151 22.1373 45.2944C22.2508 45.1112 22.3274 44.9073 22.3624 44.6943C22.4011 44.4351 22.4188 44.1732 22.4156 43.9111C22.4251 43.5803 22.3928 43.2496 22.3194 42.927C22.254 42.6886 22.1295 42.4708 21.9577 42.2938ZM21.4517 44.3942C21.4475 44.519 21.4164 44.6413 21.3607 44.7528C21.3046 44.8587 21.2158 44.9435 21.1077 44.9944C20.9623 45.0594 20.8037 45.089 20.6448 45.0808H20.197V42.7388H20.7029C20.8553 42.7313 21.0072 42.761 21.1456 42.8253C21.2471 42.8835 21.3277 42.9725 21.3759 43.0795C21.4295 43.2006 21.4587 43.3311 21.4619 43.4635C21.4619 43.6085 21.4619 43.7611 21.4619 43.9213C21.4619 44.0815 21.472 44.2467 21.4619 44.3942H21.4517Z" fill="#AFB1B8"/>
<path d="M26.6074 41.8105H25.803L24.2852 48.6993H25.2667L25.5551 47.2193H26.8933L27.1817 48.6993H28.1632L26.6074 41.8105ZM25.7018 46.281L26.185 43.7838H26.2027L26.6833 46.281H25.7018Z" fill="#AFB1B8"/>
<path d="M32.9496 45.9606H32.9319L31.4494 41.8105H30.5059V48.6993H31.4874V44.5569H31.5076L33.0078 48.6993H33.9311V41.8105H32.9496V45.9606Z" fill="#AFB1B8"/>
<path d="M38.9481 41.8105L38.1588 44.5493H38.1386L37.3493 41.8105H36.3096L37.6579 45.7877V48.6993H38.6394V45.7877L39.9878 41.8105H38.9481Z" fill="#AFB1B8"/>
<path d="M0 50.6447H0.473058V51.972H0.794333V50.6447H1.26486V50.3726H0V50.6447Z" fill="#AFB1B8"/>
<path d="M3.9772 50.3726L3.35742 51.972H3.69893L3.83048 51.6084H4.46797L4.60458 51.972H4.95368L4.31872 50.3726H3.9772ZM3.92661 51.3389L4.14417 50.7464L4.36172 51.3389H3.92661Z" fill="#AFB1B8"/>
<path d="M7.90744 51.3821H8.27678V51.5881C8.16892 51.6746 8.03527 51.722 7.89732 51.7229C7.83281 51.7265 7.76837 51.7145 7.70939 51.688C7.65042 51.6614 7.59863 51.6211 7.55834 51.5703C7.47353 51.4485 7.43168 51.3017 7.43944 51.1533C7.43944 50.7973 7.59376 50.6193 7.89985 50.6193C7.98043 50.6112 8.0612 50.6325 8.12755 50.6791C8.1939 50.7257 8.24145 50.7947 8.2616 50.8735L8.57782 50.8125C8.50952 50.4997 8.28437 50.3421 7.89985 50.3421C7.69419 50.3366 7.49421 50.4103 7.34078 50.5481C7.2602 50.6276 7.19785 50.7239 7.15809 50.8302C7.11833 50.9365 7.10212 51.0502 7.11058 51.1634C7.10126 51.3823 7.17444 51.5966 7.31549 51.7636C7.39386 51.8444 7.48871 51.9071 7.59353 51.9475C7.69834 51.9879 7.81061 52.0049 7.92262 51.9975C8.17289 52.0045 8.41603 51.9133 8.60059 51.7432V51.1126H7.90744V51.3821Z" fill="#AFB1B8"/>
<path d="M11.9224 50.3726H11.5986V51.972H12.7193V51.7H11.9224V50.3726Z" fill="#AFB1B8"/>
<path d="M15.3179 50.3726H14.9941V51.972H15.3179V50.3726Z" fill="#AFB1B8"/>
<path d="M18.6369 51.4406L17.9817 50.3726H17.668V51.972H17.969V50.9269L18.6116 51.972H18.9328V50.3726H18.6369V51.4406Z" fill="#AFB1B8"/>
<path d="M21.6363 51.2677H22.4332V50.9956H21.6363V50.6447H22.4939V50.3726H21.3125V51.972H22.5268V51.7H21.6363V51.2677Z" fill="#AFB1B8"/>
<path d="M28.9121 51.0032H28.2822V50.3726H27.9609V51.972H28.2822V51.2728H28.9121V51.972H29.2334V50.3726H28.9121V51.0032Z" fill="#AFB1B8"/>
<path d="M31.9306 51.2677H32.73V50.9956H31.9306V50.6447H32.7908V50.3726H31.6094V51.972H32.8211V51.7H31.9306V51.2677Z" fill="#AFB1B8"/>
<path d="M36.0235 51.2676C36.3018 51.2244 36.4434 51.0769 36.4434 50.8226C36.4515 50.7546 36.4412 50.6856 36.4136 50.623C36.386 50.5603 36.3421 50.5063 36.2866 50.4666C36.1417 50.3938 35.9801 50.3614 35.8186 50.3725H35.1406V51.972H35.4619V51.3032H35.5251C35.5936 51.299 35.6621 51.3112 35.725 51.3388C35.772 51.3678 35.8111 51.4079 35.8388 51.4558L36.1879 51.9644H36.5724L36.3777 51.6516C36.2916 51.4972 36.1702 51.3656 36.0235 51.2676ZM35.6997 51.0464H35.4619V50.6446H35.7149C35.8251 50.6357 35.936 50.6486 36.0412 50.6827C36.0646 50.7034 36.0831 50.7291 36.0952 50.7579C36.1074 50.7867 36.113 50.8179 36.1115 50.8492C36.11 50.8804 36.1016 50.911 36.0868 50.9385C36.072 50.966 36.0512 50.9899 36.026 51.0082C35.9204 51.0406 35.8099 51.0535 35.6997 51.0464Z" fill="#AFB1B8"/>
<path d="M39.1099 51.2677H39.9068V50.9956H39.1099V50.6447H39.97V50.3726H38.7861V51.972H40.0004V51.7H39.1099V51.2677Z" fill="#AFB1B8"/>
</svg>
