<svg width="89" height="46" viewBox="0 0 89 46" fill="none" xmlns="http://www.w3.org/2000/svg">
<path d="M44.7404 21.3533C44.3224 20.7432 44.1225 20.022 44.1699 19.2962V16.3135C44.1699 15.3992 44.359 14.7044 44.7372 14.2291C45.1154 13.7537 45.7649 13.517 46.6858 13.5191C47.5512 13.5191 48.1654 13.7213 48.5287 14.1259C48.9249 14.6421 49.1176 15.2733 49.0735 15.91V16.6109H47.5255V15.9009C47.531 15.6685 47.516 15.4361 47.4807 15.2061C47.4584 15.0488 47.3804 14.9033 47.2595 14.7934C47.1006 14.675 46.9003 14.6175 46.6987 14.6326C46.4866 14.6176 46.2762 14.6782 46.1089 14.8025C45.9741 14.9243 45.8842 15.0838 45.8525 15.2576C45.8081 15.5011 45.7878 15.7479 45.7916 15.995V19.6147C45.7672 19.964 45.8355 20.3134 45.9904 20.6312C46.0673 20.7387 46.1743 20.824 46.2993 20.8775C46.4243 20.9311 46.5625 20.9508 46.6987 20.9346C46.897 20.9501 47.0937 20.8912 47.2467 20.7708C47.3728 20.6523 47.454 20.4976 47.4775 20.3308C47.5136 20.0907 47.5297 19.8482 47.5255 19.6056V18.8714H49.0735V19.5419C49.117 20.2056 48.9289 20.8644 48.5383 21.4171C48.1825 21.86 47.5768 22.0815 46.6858 22.0815C45.7949 22.0815 45.1218 21.8449 44.7404 21.3533Z" fill="#AFB1B8"/>
<path d="M51.1861 21.3837C50.7951 20.9194 50.5996 20.2428 50.5996 19.3477V16.2104C50.5996 15.3244 50.7951 14.6538 51.1861 14.1987C51.5771 13.7436 52.2309 13.517 53.1475 13.5191C54.0577 13.5191 54.7083 13.7456 55.0993 14.1987C55.4903 14.6538 55.689 15.3244 55.689 16.2104V19.3477C55.689 20.2337 55.4903 20.9134 55.0929 21.3806C54.6955 21.8479 54.0481 22.0815 53.1475 22.0815C52.2469 22.0815 51.5803 21.8449 51.1861 21.3837ZM53.8686 20.6312C54.0086 20.3404 54.0724 20.0219 54.0545 19.7027V15.8615C54.0724 15.5485 54.0097 15.2361 53.8718 14.9512C53.7933 14.8414 53.6837 14.7547 53.5556 14.7011C53.4276 14.6474 53.2861 14.629 53.1475 14.6478C53.0084 14.6294 52.8667 14.6481 52.7382 14.7017C52.6097 14.7553 52.4996 14.8417 52.42 14.9512C52.279 15.2353 52.2152 15.5481 52.2341 15.8615V19.7209C52.2146 20.0402 52.2785 20.3591 52.42 20.6494C52.5102 20.7473 52.6216 20.8257 52.7465 20.8795C52.8714 20.9332 53.0071 20.961 53.1443 20.961C53.2815 20.961 53.4172 20.9332 53.5421 20.8795C53.667 20.8257 53.7783 20.7473 53.8686 20.6494V20.6312Z" fill="#AFB1B8"/>
<path d="M57.551 13.6106H59.2176L60.4707 19.3992L61.7527 13.6106H63.3744L63.5378 21.9658H62.3392L62.211 16.159L60.9739 21.9658H60.0124L58.7304 16.1378L58.6119 21.9658H57.4004L57.551 13.6106Z" fill="#AFB1B8"/>
<path d="M65.4061 13.6106H68.0021C69.4977 13.6106 70.2455 14.4014 70.2455 15.9831C70.2455 17.498 69.4581 18.2544 67.8835 18.2524H66.9989V21.9658H65.3965L65.4061 13.6106ZM67.6239 17.1814C67.7822 17.2005 67.943 17.1867 68.0952 17.1411C68.2474 17.0956 68.3873 17.0193 68.5052 16.9175C68.689 16.6353 68.77 16.3039 68.736 15.974C68.7444 15.7191 68.7185 15.4642 68.6591 15.2155C68.6362 15.1324 68.5961 15.0545 68.5411 14.9863C68.486 14.918 68.4172 14.8608 68.3386 14.8181C68.1161 14.7171 67.8702 14.6711 67.6239 14.6846H67.0021V17.1814H67.6239Z" fill="#AFB1B8"/>
<path d="M72.5559 13.6106H74.277L76.0428 21.9658H74.5494L74.2 20.0393H72.6649L72.3059 21.9658H70.79L72.5559 13.6106ZM74.027 19.0715L73.4277 15.5644L72.8283 19.0715H74.027Z" fill="#AFB1B8"/>
<path d="M77.469 13.6106H78.5908L80.7381 18.3768V13.6106H82.0681V21.9658H81.0009L78.8407 16.9903V21.9658H77.4658L77.469 13.6106Z" fill="#AFB1B8"/>
<path d="M85.1836 18.7801L83.3984 13.6223H84.9015L85.9912 16.9354L87.0136 13.6223H88.4846L86.7219 18.7801V21.9658H85.1836V18.7801Z" fill="#AFB1B8"/>
<path d="M47.2146 25.6189V26.0558H45.907V29.4509H45.3589V26.0558H44.0449V25.6189H47.2146Z" fill="#AFB1B8"/>
<path d="M51.3141 29.4512H50.891C50.8481 29.4537 50.8057 29.4407 50.7724 29.4148C50.7404 29.3925 50.7159 29.362 50.7019 29.3268L50.3238 28.4166H48.5097L48.1316 29.3268C48.1208 29.3649 48.1011 29.4001 48.0739 29.43C48.0403 29.4554 47.9982 29.4683 47.9553 29.4664H47.5322L49.1347 25.6345H49.6924L51.3141 29.4512ZM48.6604 28.0283H50.1731L49.5321 26.4688C49.4848 26.3509 49.4452 26.2303 49.4135 26.1078C49.3911 26.1806 49.3719 26.2504 49.3526 26.3111L49.295 26.4719L48.6604 28.0283Z" fill="#AFB1B8"/>
<path d="M54.0761 29.0748C54.1765 29.0798 54.2771 29.0798 54.3774 29.0748C54.4641 29.0664 54.5498 29.0512 54.6338 29.0293C54.7123 29.0111 54.7894 28.9878 54.8646 28.9595C54.9351 28.9322 55.0056 28.8988 55.0793 28.8655V28.0037H54.4383C54.4225 28.0046 54.4066 28.0023 54.3917 27.9971C54.3768 27.9919 54.3632 27.9838 54.3518 27.9734C54.3413 27.9648 54.3329 27.954 54.3274 27.9419C54.3218 27.9299 54.3192 27.9167 54.3197 27.9036V27.6093H55.5632V29.0779C55.4617 29.1466 55.3546 29.2075 55.2427 29.2599C55.1285 29.3133 55.0094 29.357 54.887 29.3904C54.7559 29.4269 54.6219 29.4533 54.4864 29.4693C54.331 29.4856 54.1748 29.4937 54.0185 29.4936C53.7421 29.4958 53.4678 29.4473 53.2108 29.351C52.9709 29.2596 52.7529 29.1234 52.5698 28.9504C52.3914 28.7757 52.2509 28.5695 52.1564 28.3436C52.0554 28.0896 52.0054 27.8199 52.009 27.5486C52.0056 27.2755 52.0545 27.0041 52.1532 26.7475C52.2454 26.5204 52.3861 26.3138 52.5666 26.1406C52.7495 25.9682 52.9676 25.833 53.2076 25.7431C53.4821 25.6454 53.7733 25.597 54.0665 25.6005C54.2157 25.6003 54.3647 25.6115 54.512 25.6339C54.6423 25.654 54.7701 25.6865 54.8934 25.731C55.0055 25.7709 55.1129 25.8217 55.2139 25.8827C55.3121 25.9426 55.4053 26.0095 55.4927 26.083L55.3389 26.3197C55.3268 26.3413 55.3089 26.3594 55.2869 26.3722C55.2649 26.3851 55.2397 26.392 55.2139 26.3925C55.1784 26.3914 55.144 26.3809 55.1145 26.3621C55.0665 26.3379 55.0152 26.3075 54.9575 26.2711C54.8894 26.2307 54.8175 26.1961 54.7428 26.1679C54.6472 26.1317 54.5486 26.1032 54.4479 26.083C54.3137 26.0596 54.1774 26.0484 54.0409 26.0496C53.8294 26.0474 53.6195 26.0834 53.4223 26.1558C53.244 26.2235 53.0833 26.3271 52.9512 26.4592C52.8184 26.597 52.7169 26.7592 52.6532 26.9356C52.51 27.3507 52.51 27.7981 52.6532 28.2131C52.7233 28.3933 52.8325 28.5576 52.9737 28.6955C53.1051 28.827 53.2646 28.9304 53.4416 28.999C53.6454 29.0652 53.8614 29.091 54.0761 29.0748Z" fill="#AFB1B8"/>
<path d="M59.1856 29.014H60.9355V29.4509H58.6504V25.6189H59.1984L59.1856 29.014Z" fill="#AFB1B8"/>
<path d="M62.7551 29.4509H62.207V25.6189H62.7551V29.4509Z" fill="#AFB1B8"/>
<path d="M64.7939 25.6371C64.8265 25.6547 64.8548 25.6785 64.8772 25.7069L67.22 28.5955C67.2168 28.5501 67.2168 28.5045 67.22 28.459C67.22 28.4165 67.22 28.374 67.22 28.3346V25.6038H67.6975V29.4512H67.4219C67.3811 29.4543 67.3401 29.447 67.3033 29.43C67.27 29.4109 67.2407 29.3862 67.2168 29.3571L64.8772 26.4716C64.8772 26.5171 64.8772 26.5595 64.8772 26.602C64.8772 26.6445 64.8772 26.684 64.8772 26.7204V29.4512H64.4189V25.6189H64.7042C64.7351 25.619 64.7657 25.6252 64.7939 25.6371Z" fill="#AFB1B8"/>
<path d="M71.7328 25.6189V26.0406H69.7906V27.3059H71.3642V27.7124H69.7906V29.0202H71.7328V29.4419H69.2266V25.6189H71.7328Z" fill="#AFB1B8"/>
<path d="M14.304 1.95391L38.6389 8.49527V31.4173L14.304 24.879V1.95391ZM12.7432 0V25.9925L40.1965 33.3743V7.38482L12.7432 0Z" fill="#AFB1B8"/>
<path d="M27.4565 45.4402L0 38.0522V12.0625L27.4565 19.4474V45.4402Z" fill="#AFB1B8"/>
<path d="M13.1978 1.65958L37.2155 8.11891L27.0014 17.7912L2.98057 11.3288L13.1978 1.65958ZM12.7427 0L0 12.0631L27.4565 19.4478L40.196 7.38469L12.7427 0Z" fill="#AFB1B8"/>
<path d="M29.001 43.978L40.1957 33.3774L29.001 30.3647V43.978Z" fill="#AFB1B8"/>
</svg>
