<svg width="80" height="43" viewBox="0 0 80 43" fill="none" xmlns="http://www.w3.org/2000/svg">
<path d="M12.4017 12.8306H12.399C10.1367 12.8306 8.30273 14.6177 8.30273 16.8223V16.8249C8.30273 19.0295 10.1367 20.8167 12.399 20.8167H12.4017C14.664 20.8167 16.498 19.0295 16.498 16.8249V16.8223C16.498 14.6177 14.664 12.8306 12.4017 12.8306Z" fill="#2196F3"/>
<path d="M42.6363 11.5545C42.6299 8.49242 41.379 5.55752 39.1574 3.39207C36.9358 1.22661 33.9245 0.00695286 30.7823 0V0C27.6392 0.00556265 24.6264 1.22461 22.4037 3.39022C20.1809 5.55582 18.9293 8.49151 18.9229 11.5545V28.4402C18.9229 28.4402 42.6336 25.8667 42.6363 11.5571V11.5545Z" fill="#2196F3"/>
<path d="M0 33.9823C0.00569904 36.1129 0.876556 38.1547 2.42228 39.6615C3.96799 41.1683 6.0629 42.0177 8.24923 42.0239C10.4351 42.0177 12.5296 41.1687 14.0752 39.6625C15.6209 38.1562 16.492 36.1151 16.4985 33.9849V22.2356C16.4985 22.2356 0 24.0276 0 33.9823ZM8.24923 36.0874C7.82198 36.0874 7.40433 35.964 7.04909 35.7326C6.69385 35.5013 6.41697 35.1726 6.25347 34.7879C6.08997 34.4032 6.04719 33.98 6.13054 33.5716C6.2139 33.1632 6.41963 32.7881 6.72174 32.4937C7.02385 32.1993 7.40876 31.9988 7.8278 31.9176C8.24683 31.8364 8.68117 31.8781 9.0759 32.0374C9.47062 32.1967 9.808 32.4665 10.0454 32.8127C10.2827 33.1589 10.4094 33.5659 10.4094 33.9823C10.4105 34.2594 10.3554 34.534 10.2473 34.7903C10.1392 35.0466 9.98028 35.2796 9.77958 35.476C9.57889 35.6723 9.34039 35.828 9.07777 35.9343C8.81516 36.0406 8.53359 36.0953 8.24923 36.0953V36.0874Z" fill="#2196F3"/>
<path d="M25.0889 34.7812H23.4014V36.5244H22.5225V32.2588H25.2998V32.9707H23.4014V34.0723H25.0889V34.7812ZM29.3135 34.4883C29.3135 34.9082 29.2393 35.2764 29.0908 35.5928C28.9424 35.9092 28.7295 36.1533 28.4521 36.3252C28.1768 36.4971 27.8604 36.583 27.5029 36.583C27.1494 36.583 26.834 36.498 26.5566 36.3281C26.2793 36.1582 26.0645 35.916 25.9121 35.6016C25.7598 35.2852 25.6826 34.9219 25.6807 34.5117V34.3008C25.6807 33.8809 25.7559 33.5117 25.9062 33.1934C26.0586 32.873 26.2725 32.6279 26.5479 32.458C26.8252 32.2861 27.1416 32.2002 27.4971 32.2002C27.8525 32.2002 28.168 32.2861 28.4434 32.458C28.7207 32.6279 28.9346 32.873 29.085 33.1934C29.2373 33.5117 29.3135 33.8799 29.3135 34.2979V34.4883ZM28.4229 34.2949C28.4229 33.8477 28.3428 33.5078 28.1826 33.2754C28.0225 33.043 27.7939 32.9268 27.4971 32.9268C27.2021 32.9268 26.9746 33.042 26.8145 33.2725C26.6543 33.501 26.5732 33.8369 26.5713 34.2803V34.4883C26.5713 34.9238 26.6514 35.2617 26.8115 35.502C26.9717 35.7422 27.2021 35.8623 27.5029 35.8623C27.7979 35.8623 28.0244 35.7471 28.1826 35.5166C28.3408 35.2842 28.4209 34.9463 28.4229 34.5029V34.2949ZM32.1641 35.4053C32.1641 35.2393 32.1055 35.1123 31.9883 35.0244C31.8711 34.9346 31.6602 34.8408 31.3555 34.7432C31.0508 34.6436 30.8096 34.5459 30.6318 34.4502C30.1475 34.1885 29.9053 33.8359 29.9053 33.3926C29.9053 33.1621 29.9697 32.957 30.0986 32.7773C30.2295 32.5957 30.416 32.4541 30.6582 32.3525C30.9023 32.251 31.1758 32.2002 31.4785 32.2002C31.7832 32.2002 32.0547 32.2559 32.293 32.3672C32.5312 32.4766 32.7158 32.6318 32.8467 32.833C32.9795 33.0342 33.0459 33.2627 33.0459 33.5186H32.167C32.167 33.3232 32.1055 33.1719 31.9824 33.0645C31.8594 32.9551 31.6865 32.9004 31.4639 32.9004C31.249 32.9004 31.082 32.9463 30.9629 33.0381C30.8438 33.1279 30.7842 33.2471 30.7842 33.3955C30.7842 33.5342 30.8535 33.6504 30.9922 33.7441C31.1328 33.8379 31.3389 33.9258 31.6104 34.0078C32.1104 34.1582 32.4746 34.3447 32.7031 34.5674C32.9316 34.79 33.0459 35.0674 33.0459 35.3994C33.0459 35.7686 32.9062 36.0586 32.627 36.2695C32.3477 36.4785 31.9717 36.583 31.499 36.583C31.1709 36.583 30.8721 36.5234 30.6025 36.4043C30.333 36.2832 30.127 36.1182 29.9844 35.9092C29.8438 35.7002 29.7734 35.458 29.7734 35.1826H30.6553C30.6553 35.6533 30.9365 35.8887 31.499 35.8887C31.708 35.8887 31.8711 35.8467 31.9883 35.7627C32.1055 35.6768 32.1641 35.5576 32.1641 35.4053ZM36.8545 32.9707H35.5479V36.5244H34.6689V32.9707H33.3799V32.2588H36.8545V32.9707ZM39.9248 34.6758H38.2373V35.8184H40.2178V36.5244H37.3584V32.2588H40.2119V32.9707H38.2373V33.9873H39.9248V34.6758ZM42.3125 34.9629H41.6123V36.5244H40.7334V32.2588H42.3184C42.8223 32.2588 43.2109 32.3711 43.4844 32.5957C43.7578 32.8203 43.8945 33.1377 43.8945 33.5479C43.8945 33.8389 43.8311 34.082 43.7041 34.2773C43.5791 34.4707 43.3887 34.625 43.1328 34.7402L44.0557 36.4834V36.5244H43.1123L42.3125 34.9629ZM41.6123 34.251H42.3213C42.542 34.251 42.7129 34.1953 42.834 34.084C42.9551 33.9707 43.0156 33.8154 43.0156 33.6182C43.0156 33.417 42.958 33.2588 42.8428 33.1436C42.7295 33.0283 42.5547 32.9707 42.3184 32.9707H41.6123V34.251ZM46.9385 35.0215V36.5244H46.0596V32.2588H47.7236C48.0439 32.2588 48.3252 32.3174 48.5674 32.4346C48.8115 32.5518 48.999 32.7188 49.1299 32.9355C49.2607 33.1504 49.3262 33.3955 49.3262 33.6709C49.3262 34.0889 49.1826 34.4189 48.8955 34.6611C48.6104 34.9014 48.2148 35.0215 47.709 35.0215H46.9385ZM46.9385 34.3096H47.7236C47.9561 34.3096 48.1328 34.2549 48.2539 34.1455C48.377 34.0361 48.4385 33.8799 48.4385 33.6768C48.4385 33.4678 48.377 33.2988 48.2539 33.1699C48.1309 33.041 47.9609 32.9746 47.7441 32.9707H46.9385V34.3096ZM52.499 34.6758H50.8115V35.8184H52.792V36.5244H49.9326V32.2588H52.7861V32.9707H50.8115V33.9873H52.499V34.6758ZM56.5771 32.9707H55.2705V36.5244H54.3916V32.9707H53.1025V32.2588H56.5771V32.9707ZM59.6475 34.6758H57.96V35.8184H59.9404V36.5244H57.0811V32.2588H59.9346V32.9707H57.96V33.9873H59.6475V34.6758ZM62.0352 34.9629H61.335V36.5244H60.4561V32.2588H62.041C62.5449 32.2588 62.9336 32.3711 63.207 32.5957C63.4805 32.8203 63.6172 33.1377 63.6172 33.5479C63.6172 33.8389 63.5537 34.082 63.4268 34.2773C63.3018 34.4707 63.1113 34.625 62.8555 34.7402L63.7783 36.4834V36.5244H62.835L62.0352 34.9629ZM61.335 34.251H62.0439C62.2646 34.251 62.4355 34.1953 62.5566 34.084C62.6777 33.9707 62.7383 33.8154 62.7383 33.6182C62.7383 33.417 62.6807 33.2588 62.5654 33.1436C62.4521 33.0283 62.2773 32.9707 62.041 32.9707H61.335V34.251ZM66.5 35.4053C66.5 35.2393 66.4414 35.1123 66.3242 35.0244C66.207 34.9346 65.9961 34.8408 65.6914 34.7432C65.3867 34.6436 65.1455 34.5459 64.9678 34.4502C64.4834 34.1885 64.2412 33.8359 64.2412 33.3926C64.2412 33.1621 64.3057 32.957 64.4346 32.7773C64.5654 32.5957 64.752 32.4541 64.9941 32.3525C65.2383 32.251 65.5117 32.2002 65.8145 32.2002C66.1191 32.2002 66.3906 32.2559 66.6289 32.3672C66.8672 32.4766 67.0518 32.6318 67.1826 32.833C67.3154 33.0342 67.3818 33.2627 67.3818 33.5186H66.5029C66.5029 33.3232 66.4414 33.1719 66.3184 33.0645C66.1953 32.9551 66.0225 32.9004 65.7998 32.9004C65.585 32.9004 65.418 32.9463 65.2988 33.0381C65.1797 33.1279 65.1201 33.2471 65.1201 33.3955C65.1201 33.5342 65.1895 33.6504 65.3281 33.7441C65.4688 33.8379 65.6748 33.9258 65.9463 34.0078C66.4463 34.1582 66.8105 34.3447 67.0391 34.5674C67.2676 34.79 67.3818 35.0674 67.3818 35.3994C67.3818 35.7686 67.2422 36.0586 66.9629 36.2695C66.6836 36.4785 66.3076 36.583 65.835 36.583C65.5068 36.583 65.208 36.5234 64.9385 36.4043C64.6689 36.2832 64.4629 36.1182 64.3203 35.9092C64.1797 35.7002 64.1094 35.458 64.1094 35.1826H64.9912C64.9912 35.6533 65.2725 35.8887 65.835 35.8887C66.0439 35.8887 66.207 35.8467 66.3242 35.7627C66.4414 35.6768 66.5 35.5576 66.5 35.4053Z" fill="#2196F3"/>
</svg>
