<svg width="41" height="43" viewBox="0 0 41 43" fill="none" xmlns="http://www.w3.org/2000/svg">
<path d="M6.34566 41.7946C6.36067 41.795 6.37546 41.7982 6.38915 41.8041C6.40284 41.81 6.41516 41.8184 6.42539 41.8289L6.63116 42.0446C6.47144 42.2191 6.27403 42.3588 6.05243 42.4539C5.79293 42.5577 5.51326 42.6078 5.23192 42.6009C4.96755 42.6061 4.70488 42.5594 4.46028 42.4637C4.23964 42.3758 4.04139 42.2437 3.87898 42.0764C3.71321 41.9029 3.58553 41.6996 3.50344 41.4784C3.41355 41.2318 3.36916 40.9723 3.37226 40.7113C3.36861 40.4486 3.4166 40.1875 3.51373 39.9417C3.60359 39.7191 3.73912 39.5158 3.91241 39.3436C4.08805 39.1749 4.29815 39.0423 4.52973 38.9539C4.78306 38.8604 5.05283 38.8138 5.32452 38.8167C5.57689 38.8108 5.82792 38.8534 6.06272 38.9417C6.26644 39.0259 6.45349 39.1428 6.61573 39.2873L6.4434 39.5177C6.43149 39.5339 6.41669 39.548 6.39967 39.5593C6.37934 39.5726 6.35477 39.5787 6.33022 39.5765C6.30353 39.5747 6.27779 39.5663 6.25563 39.552L6.16303 39.4907L6.03443 39.4123C5.97891 39.3832 5.92133 39.3578 5.86209 39.3363C5.78581 39.3103 5.70756 39.2898 5.62803 39.275C5.52709 39.2573 5.42457 39.2491 5.32195 39.2505C5.12631 39.2482 4.93215 39.2832 4.75093 39.3534C4.58192 39.4185 4.42937 39.5171 4.30338 39.6427C4.17512 39.7762 4.07629 39.9329 4.01273 40.1034C3.94029 40.2985 3.90458 40.5043 3.90727 40.7113C3.90418 40.9214 3.93988 41.1305 4.01273 41.3289C4.07549 41.498 4.1725 41.6537 4.29823 41.7872C4.41604 41.9117 4.56206 42.0089 4.72521 42.0715C4.89311 42.1379 5.07333 42.1712 5.25507 42.1696C5.36005 42.1711 5.465 42.1646 5.56887 42.15C5.73848 42.1302 5.90118 42.0741 6.04472 41.9858C6.11671 41.9405 6.18467 41.8897 6.24792 41.8338C6.27436 41.8098 6.30914 41.7958 6.34566 41.7946Z" fill="#AFB1B8"/>
<path d="M12.2876 40.7108C12.2908 40.9709 12.2437 41.2292 12.1487 41.473C12.0649 41.6941 11.9328 41.8958 11.7613 42.0648C11.5897 42.2338 11.3825 42.3662 11.1533 42.4533C10.6497 42.6363 10.093 42.6363 9.58945 42.4533C9.36174 42.3648 9.15588 42.2321 8.985 42.0636C8.81354 41.8916 8.68053 41.6882 8.59404 41.4657C8.40876 40.972 8.40876 40.4325 8.59404 39.9388C8.68179 39.7162 8.81463 39.5122 8.985 39.3384C9.15733 39.1752 9.36309 39.0476 9.58945 38.9635C10.0924 38.7772 10.6503 38.7772 11.1533 38.9635C11.3818 39.0519 11.5885 39.1846 11.7603 39.3531C11.9297 39.5235 12.0617 39.7243 12.1487 39.9437C12.244 40.1892 12.2911 40.4492 12.2876 40.7108ZM11.7475 40.7108C11.7515 40.5028 11.7185 40.2956 11.6497 40.0981C11.5921 39.929 11.4984 39.7729 11.3745 39.6399C11.2539 39.5139 11.1054 39.4152 10.9398 39.3507C10.5739 39.2167 10.1688 39.2167 9.80294 39.3507C9.63733 39.4152 9.48885 39.5139 9.36825 39.6399C9.24264 39.7722 9.14795 39.9284 9.09046 40.0981C8.95959 40.4971 8.95959 40.9246 9.09046 41.3235C9.14852 41.4931 9.24314 41.6492 9.36825 41.7818C9.489 41.907 9.63749 42.0049 9.80294 42.0685C10.1695 42.1991 10.5732 42.1991 10.9398 42.0685C11.1053 42.0049 11.2538 41.907 11.3745 41.7818C11.4978 41.6484 11.5915 41.4925 11.6497 41.3235C11.7187 41.1261 11.7518 40.9189 11.7475 40.7108Z" fill="#AFB1B8"/>
<path d="M16.3413 41.3532L16.3953 41.4904C16.4158 41.4414 16.4339 41.3973 16.4544 41.3532C16.474 41.3071 16.4964 41.2621 16.5213 41.2184L17.8357 38.942C17.8614 38.9028 17.8845 38.8783 17.9103 38.8709C17.9452 38.8608 17.9818 38.8566 18.0183 38.8587H18.4067V42.5613H17.9463V39.8388C17.9463 39.8045 17.9463 39.7653 17.9463 39.7237C17.9438 39.6812 17.9438 39.6387 17.9463 39.5962L16.6242 41.9046C16.6074 41.9391 16.5805 41.9684 16.5468 41.9888C16.513 42.0092 16.4738 42.02 16.4339 42.0197H16.3593C16.3192 42.0203 16.2799 42.0097 16.2461 41.9892C16.2122 41.9687 16.1854 41.9393 16.1689 41.9046L14.8083 39.5815C14.8083 39.6256 14.8083 39.6698 14.8083 39.7139C14.8083 39.758 14.8083 39.7972 14.8083 39.8315V42.5539H14.3633V38.8587H14.7517C14.7882 38.8566 14.8247 38.8608 14.8597 38.8709C14.8916 38.886 14.917 38.9111 14.9317 38.942L16.2744 41.2209C16.3008 41.263 16.3231 41.3073 16.3413 41.3532Z" fill="#AFB1B8"/>
<path d="M21.2869 41.1692V42.5562H20.7725V38.8585H21.9196C22.1362 38.8546 22.3521 38.8818 22.5601 38.9394C22.7266 38.9843 22.881 39.0629 23.0128 39.1697C23.127 39.2699 23.2151 39.394 23.27 39.5324C23.3307 39.6832 23.3604 39.8438 23.3575 40.0053C23.3597 40.1675 23.3274 40.3284 23.2623 40.4782C23.2005 40.6201 23.1054 40.7466 22.9845 40.8482C22.8525 40.9595 22.6974 41.043 22.5292 41.0933C22.329 41.1542 22.1195 41.1832 21.9093 41.179L21.2869 41.1692ZM21.2869 40.7723H21.9093C22.0446 40.7739 22.1792 40.7549 22.308 40.7159C22.4143 40.6818 22.5123 40.6277 22.5961 40.5566C22.6734 40.4888 22.7332 40.405 22.771 40.3116C22.8131 40.2128 22.8341 40.107 22.8327 40.0004C22.8387 39.8976 22.8211 39.7948 22.7811 39.6992C22.7412 39.6035 22.6798 39.5174 22.6013 39.4466C22.4047 39.3004 22.1579 39.2296 21.9093 39.2481H21.2869V40.7723Z" fill="#AFB1B8"/>
<path d="M28.2007 42.5612H27.7943C27.7536 42.5626 27.7135 42.5505 27.6812 42.5268C27.652 42.5038 27.6291 42.4744 27.6143 42.4411L27.2645 41.5466H25.5077L25.145 42.4411C25.1317 42.4738 25.1095 42.5025 25.0807 42.5244C25.048 42.5495 25.007 42.5625 24.965 42.5612H24.5586L26.1019 38.8582H26.6369L28.2007 42.5612ZM25.6543 41.1863H27.105L26.4928 39.6791C26.4461 39.5658 26.4074 39.4495 26.3771 39.3311L26.3179 39.5247C26.2999 39.5836 26.2794 39.6375 26.2614 39.6816L25.6543 41.1863Z" fill="#AFB1B8"/>
<path d="M30.4238 38.8754C30.4546 38.8915 30.481 38.9141 30.501 38.9416L32.7516 41.7329C32.7516 41.6887 32.7516 41.6446 32.7516 41.603C32.7516 41.5613 32.7516 41.5197 32.7516 41.4804V38.8582H33.212V42.5612H32.9548C32.9183 42.5622 32.8821 42.5547 32.8494 42.5391C32.8176 42.5215 32.7896 42.4982 32.7671 42.4705L30.519 39.6817C30.5215 39.7241 30.5215 39.7666 30.519 39.8091C30.519 39.8508 30.519 39.8875 30.519 39.9218V42.5612H30.0586V38.8582H30.3312C30.3631 38.8574 30.3947 38.8632 30.4238 38.8754Z" fill="#AFB1B8"/>
<path d="M37.0032 41.0884V42.5588H36.4888V41.0884L35.0664 38.8584H35.5268C35.5665 38.8561 35.6057 38.8674 35.6374 38.8902C35.6654 38.914 35.6889 38.9422 35.7069 38.9735L36.5968 40.4121C36.6329 40.4733 36.6637 40.5297 36.6894 40.5836C36.7152 40.6375 36.7357 40.689 36.7537 40.7405L36.8206 40.5812C36.8456 40.5229 36.8748 40.4664 36.9081 40.4121L37.7852 38.9637C37.8036 38.9348 37.8261 38.9084 37.8521 38.8853C37.8826 38.8599 37.9222 38.8467 37.9627 38.8486H38.4282L37.0032 41.0884Z" fill="#AFB1B8"/>
<path d="M16.0859 32.6443C16.3097 32.6712 16.5361 32.6933 16.765 32.7129C20.2356 31.2337 23.1716 28.8127 25.206 25.7526C27.2404 22.6924 28.283 19.1289 28.2033 15.5073L24.3785 11.8633C25.1562 15.7191 24.7925 19.705 23.3279 23.3751C21.8634 27.0452 19.3559 30.2546 16.0859 32.6443Z" fill="#AFB1B8"/>
<path d="M14.7207 32.4748L14.8236 32.4944C18.3178 30.1132 20.9819 26.788 22.4712 22.9488C23.9606 19.1097 24.2068 14.9331 23.1779 10.9592L17.7301 5.76904C19.9336 10.0353 20.8205 14.8098 20.2878 19.5374C19.7551 24.265 17.8245 28.7514 14.7207 32.4748Z" fill="#AFB1B8"/>
<path d="M33.1964 19.7861C32.2709 23.7654 30.023 27.3541 26.7866 30.0196C25.8414 30.8023 24.8219 31.4996 23.7412 32.1025C26.3766 31.3646 28.7988 30.0598 30.8212 28.289C32.8436 26.5181 34.4122 24.3284 35.4059 21.8887L33.1964 19.7861Z" fill="#AFB1B8"/>
<path d="M32.3292 19.2002L29.1835 16.2031C29.1233 19.6201 28.1037 22.9594 26.2306 25.8739C24.3575 28.7885 21.6993 31.1718 18.5322 32.7764H18.5477C19.2534 32.7761 19.9586 32.736 20.6594 32.6563C23.6192 31.5053 26.2339 29.6742 28.2702 27.3262C30.3064 24.9782 31.7009 22.1865 32.3292 19.2002Z" fill="#AFB1B8"/>
<path d="M15.1757 3.5803L11.4229 0C8.06808 1.23513 5.18278 3.40643 3.14464 6.22973C1.1065 9.05304 0.0104686 12.3968 0 15.8234H0C0.0125737 19.6097 1.3502 23.2838 3.80116 26.2643C6.25213 29.2448 9.67642 31.3614 13.5321 32.2791C16.974 28.2838 18.9892 23.347 19.2847 18.186C19.5803 13.025 18.1409 7.90862 15.1757 3.5803Z" fill="#AFB1B8"/>
<path d="M41.0002 18.649C40.9867 14.1568 39.1076 9.85223 35.7735 6.67574C32.4394 3.49924 27.9213 1.70898 23.2062 1.69605C21.0274 1.6939 18.8671 2.07696 16.835 2.82576L39.8119 24.7166C40.5987 22.7815 41.0016 20.7241 41.0002 18.649Z" fill="#AFB1B8"/>
</svg>
