<svg width="45" height="50" viewBox="0 0 45 50" fill="none" xmlns="http://www.w3.org/2000/svg">
<path d="M6 0L13.3076 6.91796H33.6924V26.2158L41 33.1338V0H6Z" fill="#AFB1B8"/>
<path d="M0 6.62646V38.8137H34V26.0195L13.5231 6.63443L0 6.62646ZM27.5231 34.1055H5.38008V12.4579H6.9453V32.6397H27.5231V34.1055Z" fill="#AFB1B8"/>
<path d="M9.79053 44.7837L10.6084 43.0991H11.292L10.1006 45.3452V46.6538H9.48047V45.3452L8.28662 43.0991H8.97266L9.79053 44.7837ZM13.3013 45.8262H11.9243L11.6362 46.6538H10.9941L12.3369 43.0991H12.8911L14.2363 46.6538H13.5918L13.3013 45.8262ZM12.0977 45.3281H13.1279L12.6128 43.8535L12.0977 45.3281ZM15.7354 45.6943C15.7354 45.5299 15.7801 45.3794 15.8696 45.2427C15.9591 45.1043 16.1357 44.9408 16.3994 44.752C16.2611 44.5778 16.1642 44.4297 16.1089 44.3076C16.0552 44.1855 16.0283 44.0675 16.0283 43.9536C16.0283 43.6753 16.113 43.4556 16.2822 43.2944C16.4515 43.1317 16.6794 43.0503 16.9658 43.0503C17.2246 43.0503 17.4362 43.1268 17.6006 43.2798C17.7666 43.4312 17.8496 43.6191 17.8496 43.8438C17.8496 43.9919 17.8122 44.1286 17.7373 44.2539C17.6624 44.3776 17.5396 44.5013 17.3687 44.625L17.127 44.8008L17.813 45.6113C17.9123 45.416 17.9619 45.1987 17.9619 44.9595H18.4771C18.4771 45.3973 18.3745 45.7562 18.1694 46.0361L18.6919 46.6538H18.0034L17.8032 46.417C17.5493 46.6074 17.2466 46.7026 16.895 46.7026C16.5435 46.7026 16.2619 46.6099 16.0503 46.4243C15.8403 46.2371 15.7354 45.9938 15.7354 45.6943ZM16.9121 46.229C17.1123 46.229 17.2995 46.1623 17.4736 46.0288L16.6973 45.1133L16.6216 45.167C16.4263 45.3151 16.3286 45.4844 16.3286 45.6748C16.3286 45.8392 16.3815 45.9727 16.4873 46.0752C16.5931 46.1777 16.7347 46.229 16.9121 46.229ZM16.585 43.939C16.585 44.0757 16.6688 44.2474 16.8364 44.4541L17.1074 44.2686L17.1831 44.2075C17.284 44.118 17.3345 44.0033 17.3345 43.8633C17.3345 43.7705 17.2995 43.6916 17.2295 43.6265C17.1595 43.5597 17.0708 43.5264 16.9634 43.5264C16.8478 43.5264 16.7559 43.5654 16.6875 43.6436C16.6191 43.7217 16.585 43.8201 16.585 43.939ZM23.0425 45.4966C23.0067 45.8758 22.8667 46.172 22.6226 46.3853C22.3784 46.5968 22.0537 46.7026 21.6484 46.7026C21.3652 46.7026 21.1154 46.6359 20.8989 46.5024C20.6841 46.3674 20.5181 46.1761 20.4009 45.9287C20.2837 45.6813 20.2227 45.394 20.2178 45.0669V44.7349C20.2178 44.3996 20.2772 44.1042 20.396 43.8486C20.5148 43.5931 20.6849 43.3962 20.9062 43.2578C21.1292 43.1195 21.3864 43.0503 21.6777 43.0503C22.07 43.0503 22.3857 43.1569 22.625 43.3701C22.8643 43.5833 23.0034 43.8844 23.0425 44.2734H22.4272C22.3979 44.0179 22.3231 43.834 22.2026 43.7217C22.0838 43.6077 21.9089 43.5508 21.6777 43.5508C21.4092 43.5508 21.2025 43.6493 21.0576 43.8462C20.9144 44.0415 20.8411 44.3288 20.8379 44.708V45.0229C20.8379 45.4071 20.9062 45.7 21.043 45.9019C21.1813 46.1037 21.3831 46.2046 21.6484 46.2046C21.891 46.2046 22.0732 46.1501 22.1953 46.041C22.3174 45.932 22.3947 45.7505 22.4272 45.4966H23.0425ZM26.4336 44.9692C26.4336 45.3175 26.3734 45.6235 26.2529 45.8872C26.1325 46.1493 25.96 46.3511 25.7354 46.4927C25.5124 46.6326 25.2552 46.7026 24.9639 46.7026C24.6758 46.7026 24.4186 46.6326 24.1924 46.4927C23.9678 46.3511 23.7936 46.1501 23.6699 45.8896C23.5479 45.6292 23.486 45.3289 23.4844 44.9888V44.7886C23.4844 44.4419 23.5454 44.1359 23.6675 43.8706C23.7912 43.6053 23.9645 43.4027 24.1875 43.2627C24.4121 43.1211 24.6693 43.0503 24.959 43.0503C25.2487 43.0503 25.505 43.1203 25.728 43.2603C25.9526 43.3986 26.126 43.5988 26.248 43.8608C26.3701 44.1213 26.432 44.4248 26.4336 44.7715V44.9692ZM25.8159 44.7837C25.8159 44.3898 25.741 44.0879 25.5913 43.8779C25.4432 43.668 25.2324 43.563 24.959 43.563C24.6921 43.563 24.4829 43.668 24.3315 43.8779C24.1818 44.0863 24.1053 44.3817 24.1021 44.7642V44.9692C24.1021 45.3599 24.1777 45.6618 24.3291 45.875C24.4821 46.0882 24.6937 46.1948 24.9639 46.1948C25.2373 46.1948 25.4473 46.0907 25.5938 45.8823C25.7419 45.674 25.8159 45.3696 25.8159 44.9692V44.7837Z" fill="#AFB1B8"/>
</svg>
