<svg aria-hidden="true" style="position:absolute;width:0;height:0" xmlns="http://www.w3.org/2000/svg" overflow="hidden"><defs><symbol id="client6" viewBox="0 0 62 32"><path d="M31.124 14.854a2.264 2.264 0 01-.397-1.431v-2.075c0-.636.132-1.119.395-1.45s.715-.495 1.356-.494c.602 0 1.029.141 1.282.422.276.359.41.798.379 1.241v.488h-1.077v-.494a2.787 2.787 0 00-.031-.483.482.482 0 00-.154-.287.587.587 0 00-.39-.112.619.619 0 00-.41.118.563.563 0 00-.178.317 2.594 2.594 0 00-.042.513v2.518c-.017.243.031.486.138.707.054.075.128.134.215.171s.183.051.278.04a.545.545 0 00.381-.114.521.521 0 00.161-.306c.025-.167.036-.336.033-.505v-.511h1.077v.466c.03.462-.101.92-.372 1.304-.248.308-.669.462-1.289.462s-1.088-.165-1.353-.507zM35.608 14.876c-.272-.323-.408-.794-.408-1.416v-2.182c0-.616.136-1.083.408-1.399s.727-.474 1.364-.473c.633 0 1.086.158 1.358.473.272.317.41.783.41 1.399v2.182c0 .616-.138 1.089-.415 1.414s-.727.488-1.353.488-1.09-.165-1.364-.485zm1.866-.524c.097-.202.142-.424.129-.646v-2.672a1.286 1.286 0 00-.127-.633c-.055-.076-.131-.137-.22-.174s-.187-.05-.284-.037c-.097-.013-.195 0-.285.037s-.166.097-.221.174a1.255 1.255 0 00-.129.633v2.685c-.014.222.031.444.129.646.063.068.14.123.227.16a.708.708 0 00.554 0 .664.664 0 00.227-.16v-.013zM40.035 9.468h1.159l.872 4.027.892-4.027h1.128l.114 5.812h-.834l-.089-4.04-.861 4.04h-.669l-.892-4.054-.082 4.054h-.843l.105-5.812zM45.5 9.468h1.806c1.04 0 1.561.55 1.561 1.65 0 1.054-.548 1.58-1.643 1.579h-.615v2.583h-1.115l.007-5.812zm1.543 2.484c.11.013.222.004.328-.028s.203-.085.285-.156c.128-.196.184-.427.161-.656a1.999 1.999 0 00-.053-.528c-.016-.058-.044-.112-.082-.159s-.086-.087-.141-.117a1.072 1.072 0 00-.497-.093h-.433v1.737h.433zM50.474 9.468h1.197l1.228 5.812H51.86l-.243-1.34h-1.068l-.25 1.34h-1.055l1.228-5.812zm1.023 3.799l-.417-2.44-.417 2.44h.834zM53.891 9.468h.78l1.494 3.316V9.468h.925v5.812h-.742l-1.503-3.461v3.461h-.956l.002-5.812zM59.258 13.064l-1.242-3.588h1.046l.758 2.305.711-2.305h1.023l-1.226 3.588v2.216h-1.07v-2.216zM32.845 17.822v.304h-.91v2.362h-.381v-2.362h-.914v-.304h2.205zM35.697 20.488h-.294a.124.124 0 01-.083-.025.139.139 0 01-.049-.061l-.263-.633h-1.262l-.263.633a.19.19 0 01-.04.072.122.122 0 01-.083.025h-.294l1.115-2.666h.388l1.128 2.655zm-1.846-.99h1.052l-.446-1.085a2.234 2.234 0 01-.083-.251l-.042.141-.04.112-.441 1.083zM37.618 20.226a1.071 1.071 0 00.388-.032c.055-.013.108-.029.161-.049.049-.019.098-.042.149-.065v-.599h-.446c-.011.001-.022-.001-.032-.005a.081.081 0 01-.045-.039.05.05 0 01-.005-.027v-.205h.865v1.022a1.521 1.521 0 01-.47.218 1.86 1.86 0 01-.279.055 3.216 3.216 0 01-.325.017 1.56 1.56 0 01-.562-.099 1.34 1.34 0 01-.446-.279 1.3 1.3 0 01-.288-.422 1.459 1.459 0 01-.103-.553c-.002-.19.032-.379.1-.557.064-.158.162-.302.288-.422.127-.12.279-.214.446-.277.191-.068.394-.102.597-.099.104 0 .207.008.31.023a1.393 1.393 0 01.488.174c.068.042.133.088.194.139l-.107.165a.098.098 0 01-.087.051.136.136 0 01-.069-.021 1.538 1.538 0 01-.109-.063.975.975 0 00-.149-.072 1.301 1.301 0 00-.205-.059 1.574 1.574 0 00-.283-.023 1.187 1.187 0 00-.43.074.93.93 0 00-.328.211.943.943 0 00-.207.331c-.1.289-.1.6 0 .889a.964.964 0 00.548.547c.142.046.292.064.441.053zM41.173 20.184h1.217v.304H40.8v-2.666h.381l-.009 2.362zM43.656 20.488h-.381v-2.666h.381v2.666zM45.074 17.834a.183.183 0 01.058.049l1.63 2.009a.753.753 0 010-.095V17.81h.332v2.676h-.192a.17.17 0 01-.083-.015.196.196 0 01-.06-.051l-1.628-2.007v2.073h-.319V17.82h.198c.022 0 .043.004.062.013zM49.901 17.822v.293H48.55v.88h1.095v.283H48.55v.91h1.351v.293h-1.743v-2.659h1.743zM9.951 1.359L26.88 5.91v15.946L9.951 17.308V1.36zM8.865 0v18.082l19.098 5.135V5.137L8.865 0z"/><path d="M19.1 31.611L0 26.472V8.392l19.1 5.137v18.082z"/><path d="M9.181 1.155l16.708 4.493-7.105 6.729-16.71-4.496 7.108-6.726zM8.864 0L0 8.392l19.1 5.137 8.862-8.392L8.864 0zM20.175 30.593l7.788-7.374-7.788-2.096v9.47z"/></symbol><symbol id="client4" viewBox="0 0 60 32"><path d="M9.229 9.548h-.002c-1.684 0-3.048 1.33-3.048 2.971v.002c0 1.641 1.365 2.971 3.048 2.971h.002c1.684 0 3.048-1.33 3.048-2.971v-.002c0-1.641-1.365-2.971-3.048-2.971zM31.729 8.599c-.005-2.279-.936-4.463-2.589-6.074S25.246.006 22.907.001c-2.339.004-4.581.911-6.235 2.523S14.086 6.32 14.082 8.6v12.566s17.645-1.915 17.647-12.564V8.6zM0 25.289c.004 1.586.652 3.105 1.803 4.226s2.709 1.753 4.336 1.758c1.627-.005 3.185-.636 4.336-1.757s1.799-2.64 1.803-4.225v-8.744S0 17.881 0 25.289zm6.139 1.567c-.318 0-.629-.092-.893-.264s-.47-.417-.592-.703-.154-.601-.091-.905c.062-.304.215-.583.44-.802s.511-.368.823-.429c.312-.06.635-.029.929.089s.545.319.721.577a1.537 1.537 0 01.15 1.471 1.585 1.585 0 01-.87.851c-.195.079-.405.12-.617.12v-.006zM18.671 25.884h-1.256v1.297h-.654v-3.174h2.067v.53h-1.413v.82h1.256v.528zm3.144-.218c0 .312-.055.587-.166.822s-.269.417-.475.545c-.205.128-.44.192-.706.192-.263 0-.498-.063-.704-.19s-.366-.307-.48-.541a1.867 1.867 0 01-.172-.811v-.157c0-.312.056-.587.168-.824a1.256 1.256 0 011.184-.739c.264 0 .499.064.704.192.206.126.366.309.477.547.113.237.17.511.17.822v.142zm-.663-.144c0-.333-.06-.586-.179-.759s-.289-.259-.51-.259a.582.582 0 00-.508.257c-.119.17-.18.42-.181.75v.155c0 .324.06.576.179.754s.291.268.515.268c.22 0 .388-.086.506-.257.118-.173.177-.424.179-.754v-.155zm2.784.826a.331.331 0 00-.131-.283c-.087-.067-.244-.137-.471-.209a3.432 3.432 0 01-.539-.218c-.36-.195-.541-.457-.541-.787 0-.172.048-.324.144-.458a.945.945 0 01.416-.316c.182-.076.385-.113.61-.113.227 0 .429.041.606.124a.946.946 0 01.412.347c.099.15.148.32.148.51h-.654a.427.427 0 00-.137-.338c-.092-.081-.22-.122-.386-.122a.602.602 0 00-.373.102.317.317 0 00-.133.266c0 .103.052.19.155.259.105.07.258.135.46.196.372.112.643.251.813.416s.255.372.255.619a.767.767 0 01-.312.648c-.208.156-.488.233-.839.233-.244 0-.467-.044-.667-.133a1.07 1.07 0 01-.46-.368.945.945 0 01-.157-.541h.656c0 .35.209.525.628.525a.61.61 0 00.364-.094.313.313 0 00.131-.266zm3.491-1.812h-.972v2.645h-.654v-2.645h-.959v-.53h2.586v.53zm2.284 1.269h-1.256v.85h1.474v.525h-2.128v-3.174h2.124v.53h-1.469v.757h1.256v.512zm1.777.214h-.521v1.162h-.654v-3.174h1.18c.375 0 .664.084.868.251s.305.403.305.709a.973.973 0 01-.142.543.95.95 0 01-.425.344l.687 1.297v.03h-.702l-.595-1.162zm-.521-.53h.528c.164 0 .291-.041.382-.124.09-.084.135-.2.135-.347a.476.476 0 00-.129-.353c-.084-.086-.214-.129-.39-.129h-.525v.953zm3.964.574v1.118h-.654v-3.174h1.238c.238 0 .448.044.628.131a.964.964 0 01.419.373c.097.16.146.342.146.547 0 .311-.107.557-.321.737-.212.179-.507.268-.883.268h-.573zm0-.53h.584c.173 0 .305-.041.395-.122.092-.081.137-.198.137-.349 0-.156-.046-.281-.137-.377s-.218-.145-.379-.148h-.6v.996zm4.138.272h-1.256v.85h1.474v.525h-2.128v-3.174h2.124v.53h-1.469v.757h1.256v.512zm3.035-1.269h-.972v2.645h-.654v-2.645h-.959v-.53h2.586v.53zm2.285 1.269h-1.256v.85h1.474v.525h-2.128v-3.174h2.124v.53h-1.469v.757h1.256v.512zm1.777.214h-.521v1.162h-.654v-3.174h1.179c.375 0 .664.084.868.251s.305.403.305.709a.973.973 0 01-.142.543.95.95 0 01-.425.344l.687 1.297v.03h-.702l-.595-1.162zm-.521-.53h.528c.164 0 .291-.041.382-.124.09-.084.135-.2.135-.347a.476.476 0 00-.129-.353c-.084-.086-.214-.129-.39-.129h-.525v.953zm3.843.859a.331.331 0 00-.131-.283c-.087-.067-.244-.137-.471-.209a3.375 3.375 0 01-.538-.218c-.36-.195-.541-.457-.541-.787 0-.172.048-.324.144-.458a.945.945 0 01.416-.316 1.57 1.57 0 01.611-.113c.227 0 .429.041.606.124a.946.946 0 01.412.347c.099.15.148.32.148.51h-.654a.427.427 0 00-.137-.338c-.092-.081-.22-.122-.386-.122a.602.602 0 00-.373.102.317.317 0 00-.133.266c0 .103.052.19.155.259.105.07.258.135.46.196.372.112.643.251.813.416s.255.372.255.619a.767.767 0 01-.312.648c-.208.156-.488.233-.839.233-.244 0-.467-.044-.667-.133a1.07 1.07 0 01-.46-.368.945.945 0 01-.157-.541h.656c0 .35.209.525.628.525a.613.613 0 00.364-.094.313.313 0 00.131-.266z"/></symbol><symbol id="antenna" viewBox="0 0 32 32"><path fill="var(--color3, #212121)" d="M30.773 22.098l-8.443-8.505.937-4.616c.225.09.485.144.758.146h.033a2.16 2.16 0 10-2.029-1.42l-.005-.015-4.96.606L8.973.161a.53.53 0 00-.376-.16.536.536 0 00-.373.155L6.712 1.66a.535.535 0 000 .754l.814.825C6.383 5.301 5.71 7.761 5.71 10.378c0 4.106 1.656 7.824 4.336 10.525l-.001-.001a.49.49 0 00.146.097 2.986 2.986 0 00-.052.546v6.188h-6.4a2.669 2.669 0 00-2.667 2.666v1.067c0 .295.239.534.534.534H26.14a.534.534 0 00.533-.534v-1.067a2.67 2.67 0 00-2.666-2.666h-6.4v-2.742a14.784 14.784 0 0010.166-1.502l-.077.039.818.823a.534.534 0 00.376.16.536.536 0 00.373-.155l1.512-1.504a.535.535 0 000-.754zM23.28 6.233a1.067 1.067 0 11.752 1.822h-.004a1.066 1.066 0 01-.747-1.822h-.002zm-1.256 3.504l-.598 2.946-1.175-1.183 1.774-1.763zm-.605-.902l-1.92 1.909-1.486-1.493 3.406-.416zM24.004 28.8a1.6 1.6 0 011.6 1.6v.534H2.138V30.4a1.6 1.6 0 011.6-1.6h20.267zm-7.466-2.134v1.067h-5.334v-1.067h5.334zM11.204 25.6v-4.053c0-1.294 1.196-2.346 2.667-2.346s2.667 1.053 2.667 2.346V25.6h-5.334zm6.4-1.696v-2.357c0-1.882-1.675-3.413-3.733-3.413h-.058c-1.353 0-2.54.707-3.213 1.771l-.009.016a13.817 13.817 0 01-3.812-9.55c0-2.314.567-4.496 1.569-6.414l-.036.077 18.602 18.709c-1.823.947-3.979 1.502-6.266 1.502-1.079 0-2.128-.124-3.136-.357l.093.018zm11.289-.684L7.836 2.039l.754-.752 7.935 7.98c.004 0 .006.007.01.01l13.114 13.191-.757.752z"/><path fill="var(--color2, #2196f3)" d="M13.876 20.267h-.007a1.6 1.6 0 00-.003 3.2h.007a1.6 1.6 0 00.002-3.2zm.373 1.978a.533.533 0 11-.378-.911.533.533 0 01.374.911h.005z"/></symbol><symbol id="astronaut" viewBox="0 0 32 32"><path fill="var(--color2, #2196f3)" d="M31.974 4.524a.535.535 0 00-.427-.362h-.003l-1.91-.278-.855-1.731c-.179-.365-.777-.365-.956 0l-.855 1.731-1.911.278a.534.534 0 00-.296.91l1.383 1.348-.326 1.903a.536.536 0 00.525.624.524.524 0 00.252-.064l-.003.001 1.708-.899 1.709.899a.534.534 0 00.773-.565v.003l-.326-1.903 1.383-1.348a.532.532 0 00.133-.551l.001.004zm-2.463 1.327a.534.534 0 00-.153.472l.191 1.114-1.001-.526a.523.523 0 00-.499.002l.003-.001-1.001.526.192-1.114a.533.533 0 00-.153-.472l-.811-.789 1.119-.163a.532.532 0 00.402-.292l.5-1.013.501 1.013a.532.532 0 00.402.292l1.119.162-.809.79zm-3.377 14.671h-1.067v1.067h1.067v-1.067zm0 2.134h-1.067v1.066h1.067v-1.066zm1.066-1.067h-1.067v1.067H27.2v-1.067zM25.067 21.589H24v1.067h1.067v-1.067zm-2.667 4.8h-1.067v1.067H22.4v-1.067zm0 2.134h-1.067v1.067H22.4v-1.067zm1.066-1.067h-1.067v1.067h1.067v-1.067zm-2.132 0h-1.067v1.067h1.067v-1.067zM16 24.256h-1.067v1.067H16v-1.067zm0 2.133h-1.067v1.067H16v-1.067zm1.067-1.067H16v1.067h1.067v-1.067zm-2.134 0h-1.066v1.067h1.066v-1.067zm-9.066-19.2H4.8v1.066h1.067V6.122zm0 2.134H4.8v1.066h1.067V8.256zm1.066-1.067H5.866v1.067h1.066V7.189zm-2.133 0H3.733v1.067H4.8V7.189z"/><path fill="var(--color3, #212121)" d="M24.715 14.16a1.774 1.774 0 00-1.179-.703l-.009-.001a1.769 1.769 0 00-1.344.355l.004-.003-1.253.96-1.898 1.417-1.358-.541c2.421-1.086 4.113-3.508 4.113-6.32 0-3.823-3.122-6.934-6.961-6.934S7.869 5.5 7.869 9.324c0 1.386.415 2.674 1.12 3.759l-2.768-.024c-.009 0-.016.005-.023.005a.517.517 0 00-.159.033l.004-.001c-.013.005-.026.007-.038.013-.006.003-.013.003-.019.006l-3.233 1.596-.001.001-1.893.91a.429.429 0 00-.064.036l.001-.001a1.782 1.782 0 00-.594 2.306l-.005-.01c.22.424.592.742 1.043.885l.013.003a1.772 1.772 0 001.388-.133l-.009.005 1.388-.738 2.264-1.169 1.357-.008-5.442 5.415-.001.001-1.339 1.333c-.303.299-.49.714-.49 1.173v.005a1.66 1.66 0 001.666 1.663h.004a1.67 1.67 0 001.18-.485l1.314-1.309 1.741-1.3.901.897-3.102 3.088a1.643 1.643 0 00-.491 1.173v.004a1.662 1.662 0 001.666 1.664h.003a1.67 1.67 0 001.18-.485l4.488-4.472c.007-.006.016-.009.022-.016l5.166-5.658 3.471.494a.474.474 0 00.262-.032c.018-.006.033-.015.05-.023.019-.01.039-.015.058-.027l3.213-2.133c.012-.008.018-.021.029-.03.013-.01.029-.014.041-.026l1.271-1.191c.348-.326.564-.787.564-1.3 0-.4-.132-.769-.355-1.067l.003.005zM2.13 17.77a.71.71 0 01-.558.052.717.717 0 01-.214-1.258l.002-.001 1.314-.632.316.924.133.389-.992.527zm3.497-1.828l-1.548.8-.255-.746-.184-.537 2.027-1.001-.04 1.484zm15.1-6.62c0 .918-.219 1.785-.599 2.56l-4.181-1.899a1.865 1.865 0 00-.782-1.384l-.006-.004 1.463-4.861c2.378.756 4.105 2.974 4.105 5.588zm-11.789 0c0-3.235 2.644-5.867 5.894-5.867.253 0 .5.022.745.053l-1.432 4.753c-.019 0-.037-.006-.057-.006h-.001a1.872 1.872 0 00-1.872 1.867 1.873 1.873 0 001.872 1.867h.001c.695 0 1.295-.383 1.618-.944l3.863 1.755a5.893 5.893 0 01-4.737 2.389c-3.25 0-5.894-2.632-5.894-5.867zm5.957.8c0 .441-.362.8-.806.8h-.001a.804.804 0 01-.804-.8c0-.441.361-.8.806-.8s.806.359.806.8zM2.464 25.146a.606.606 0 01-.855.001.591.591 0 010-.844l.962-.959.852.848-.959.955zm3.214 3.734a.606.606 0 01-.855.001.591.591 0 010-.844l.963-.959.852.848-.96.955zm3.482-3.469l-.001.001-1.765 1.76-.852-.848 1.765-1.757a.527.527 0 00.09-.136c.007-.014.02-.026.026-.04.016-.041.019-.085.026-.128.003-.025.014-.048.014-.073 0-.036-.013-.07-.02-.106-.006-.032-.006-.064-.019-.096a.536.536 0 00-.092-.138c-.01-.012-.014-.027-.025-.038h-.001l-.001-.002-1.607-1.6c-.017-.017-.039-.024-.058-.038a.563.563 0 00-.084-.057l-.003-.001a.559.559 0 00-.09-.031l-.003-.001a.502.502 0 00-.101-.02h-.002l-.023-.001a.603.603 0 00-.075.005h.003c-.036.005-.069.009-.104.021a.512.512 0 00-.097.046l.002-.001c-.02.011-.042.015-.061.029l-1.773 1.324-.901-.897 2.399-2.386 4.361 4.289-.928.919zm6.819-7.017c-.015-.002-.03.004-.045.003l-.026-.001a.562.562 0 00-.092.008h.003a.484.484 0 00-.187.07l.002-.001a.528.528 0 00-.083.062c-.013.011-.028.016-.04.029l-4.698 5.146-4.328-4.256 2.833-2.818a.535.535 0 00-.378-.911h-.002l-2.219.013.028-1.607 3.104.027a6.928 6.928 0 004.978 2.101h.003c.438 0 .864-.046 1.28-.122.04.032.08.064.129.085l2.41.96.152.759.178.885-3.003-.427zm4.041.178l-.313-1.558 1.446-1.08.946 1.257-2.08 1.381zm3.754-2.831l-.838.785-.931-1.237.831-.637a.735.735 0 01.543-.143.718.718 0 01.621.71.71.71 0 01-.226.521z"/><path fill="var(--color3, #212121)" d="M13.602 18.544l-2.143-2.134a.53.53 0 00-.752 0l-2.143 2.133a.535.535 0 000 .756l2.143 2.134a.53.53 0 00.752 0l2.143-2.134a.532.532 0 000-.756zm-2.519 1.759l-1.387-1.381 1.386-1.381 1.387 1.381-1.387 1.381zm6.081-15.232l-.258 1.036c.071.018 1.738.452 1.738 2.149h1.067c0-2.017-1.666-2.965-2.547-3.184zm2.547 4.251h-1.067v1.066h1.067V9.322z"/></symbol><symbol id="client1" viewBox="0 0 32 32"><path d="M5.44 0l4.677 4.428h13.046v12.351l4.677 4.428V.001H5.44z"/><path d="M1.6 4.241v20.6h21.76v-8.188L10.255 4.247 1.6 4.242zm17.615 17.587H5.043V7.974h1.002V20.89h13.17v.938zM7.866 28.662l.523-1.078h.438l-.762 1.438v.837h-.397v-.837l-.764-1.438h.439l.523 1.078zm2.247.667h-.881l-.184.53h-.411l.859-2.275h.355l.861 2.275H10.3l-.186-.53zm-.77-.319h.659l-.33-.944-.33.944zm2.328.234c0-.105.029-.202.086-.289.057-.089.17-.193.339-.314-.088-.111-.151-.206-.186-.284s-.052-.154-.052-.227c0-.178.054-.319.162-.422s.254-.156.438-.156a.57.57 0 01.406.147.47.47 0 01.159.361.5.5 0 01-.072.262.879.879 0 01-.236.238l-.155.113.439.519a.9.9 0 00.095-.417h.33c0 .28-.066.51-.197.689l.334.395h-.441l-.128-.152c-.162.122-.356.183-.581.183s-.405-.059-.541-.178a.599.599 0 01-.202-.467zm.753.343a.58.58 0 00.359-.128l-.497-.586-.048.034c-.125.095-.188.203-.188.325 0 .105.034.191.102.256s.158.098.272.098zm-.21-1.466c0 .087.054.197.161.33l.173-.119.048-.039a.28.28 0 00.097-.22.2.2 0 00-.067-.152.236.236 0 00-.17-.064c-.074 0-.133.025-.177.075s-.066.113-.066.189zm4.133.997a.827.827 0 01-.269.569c-.156.135-.364.203-.623.203a.902.902 0 01-.48-.128c-.137-.086-.244-.209-.319-.367s-.114-.342-.117-.552v-.212c0-.215.038-.404.114-.567a.86.86 0 01.821-.511c.251 0 .453.068.606.205s.242.329.267.578h-.394c-.019-.164-.067-.281-.144-.353-.076-.073-.188-.109-.336-.109a.464.464 0 00-.397.189c-.092.125-.139.309-.141.552v.202c0 .246.044.433.131.563s.218.194.387.194c.155 0 .272-.035.35-.105s.128-.186.148-.348h.394zm2.17-.338c0 .223-.039.419-.116.588a.877.877 0 01-.331.388.905.905 0 01-.494.134.926.926 0 01-.494-.134.896.896 0 01-.334-.386 1.362 1.362 0 01-.119-.576v-.128c0-.222.039-.418.117-.588a.887.887 0 01.333-.389c.144-.091.308-.136.494-.136s.349.045.492.134c.144.088.255.217.333.384s.118.361.119.583v.127zm-.395-.118c0-.252-.048-.445-.144-.58a.468.468 0 00-.405-.202.467.467 0 00-.402.202c-.096.133-.145.322-.147.567v.131c0 .25.048.443.145.58a.473.473 0 00.406.205.464.464 0 00.403-.2c.095-.133.142-.328.142-.584v-.119z"/></symbol><symbol id="client2" viewBox="0 0 32 32"><path d="M14.14 1.806h.084c.156 0 .324.016.49.03.734.052 1.463.162 2.179.329V.403a12.97 12.97 0 00-2.25-.358 18.11 18.11 0 00-.909-.044h-.263a18.35 18.35 0 00-4.515.582 18.3 18.3 0 00-4.79 1.948v17.475a19.484 19.484 0 014.566-1.779 19.948 19.948 0 013.833-.588h.051c.216-.011.433-.017.655-.019v-1.79a21.155 21.155 0 00-4.982.662 23.81 23.81 0 00-1.731.513l-.623.211V3.591l.266-.128a17.409 17.409 0 016.471-1.651.523.523 0 01.056 0c.248-.013.497-.019.741-.019h.28c.129.003.258.006.388.014z"/><path d="M18.53 3.651a15.823 15.823 0 01-2.606-.211c-.277-.047-.55-.103-.814-.164v17.275a13.82 13.82 0 003.425.404 18.396 18.396 0 004.515-.581 18.362 18.362 0 004.792-1.948V1.263a19.562 19.562 0 01-4.564 1.781 19.388 19.388 0 01-4.747.609zm6.907.299l.623-.21v13.63l-.266.128a17.055 17.055 0 01-3.184 1.144c-1.331.344-2.7.522-4.074.527-.411 0-.819-.017-1.214-.052l-.427-.038V5.062l.497.033c.361.023.735.034 1.141.034a21.098 21.098 0 005.173-.663 26.802 26.802 0 001.731-.518zM5.377 25.977a.912.912 0 00-.693-.28 1.034 1.034 0 00-.4.075.91.91 0 00-.512.518 1.023 1.023 0 00-.072.387v2.335c-.006.165.026.328.092.479.055.12.135.226.234.313a.815.815 0 00.321.166c.114.032.231.048.349.049a.972.972 0 00.892-.61.951.951 0 00.075-.372v-.261h-.61v.208a.528.528 0 01-.036.208.359.359 0 01-.089.131.365.365 0 01-.128.067.425.425 0 01-.128.022.314.314 0 01-.286-.125.548.548 0 01-.081-.313v-2.177a.738.738 0 01.075-.349.312.312 0 01.299-.14.33.33 0 01.272.131c.068.09.104.2.101.313v.202h.604v-.238a1.093 1.093 0 00-.279-.737zM9.002 25.95a1.091 1.091 0 00-.694-.257 1.075 1.075 0 00-.364.066.965.965 0 00-.559.518 1.099 1.099 0 00-.089.452v2.239a1.08 1.08 0 00.089.459c.055.12.136.227.237.313a.94.94 0 00.322.197 1.028 1.028 0 00.728 0c.121-.044.233-.111.33-.197a.948.948 0 00.23-.313c.063-.144.093-.301.089-.459v-2.239a1.08 1.08 0 00-.089-.452 1.015 1.015 0 00-.23-.327zm-.285 3.019a.405.405 0 01-.121.324.445.445 0 01-.574 0 .397.397 0 01-.121-.324V26.73a.405.405 0 01.121-.324.445.445 0 01.574 0 .397.397 0 01.121.324v2.239zM13.764 29.969V25.73h-.587l-.771 2.244h-.011l-.777-2.244h-.581v4.239h.606V27.39h.011l.593 1.823h.302l.598-1.823h.011v2.579h.606zM17.205 26.027a.84.84 0 00-.343-.232 1.363 1.363 0 00-.439-.066h-.9v4.239h.604v-1.656h.311c.188.009.376-.031.545-.116a.882.882 0 00.332-.324 1.02 1.02 0 00.139-.369c.024-.16.035-.321.033-.482a2.421 2.421 0 00-.059-.606.898.898 0 00-.223-.39zm-.312 1.293a.547.547 0 01-.056.221.346.346 0 01-.156.149.619.619 0 01-.285.053h-.276v-1.441h.311a.578.578 0 01.272.053.352.352 0 01.142.156.624.624 0 01.053.236v.282c0 .099.006.2 0 .291h-.006zM20.066 25.73h-.495l-.934 4.239h.604l.177-.911h.823l.177.911h.604l-.957-4.239zm-.557 2.751l.297-1.537h.011l.296 1.537h-.604zM23.969 28.283h-.011l-.912-2.554h-.581v4.239h.604v-2.549h.012l.923 2.549h.568v-4.239h-.604v2.554zM27.66 25.73l-.486 1.685h-.012l-.486-1.685h-.64l.83 2.447v1.792h.604v-1.792l.83-2.447h-.64zM3.692 31.166h.291v.817h.198v-.817h.29v-.167h-.778v.167zM6.14 30.999l-.381.984h.21l.081-.224h.392l.084.224h.215l-.391-.984h-.21zm-.031.594l.134-.365.134.365h-.268zM8.558 31.62h.227v.127a.38.38 0 01-.233.083.244.244 0 01-.209-.093.411.411 0 01-.073-.257c0-.219.095-.329.283-.329a.206.206 0 01.222.157l.195-.038c-.042-.192-.181-.289-.417-.289a.495.495 0 00-.344.127.494.494 0 00-.141.379.532.532 0 00.126.369.477.477 0 00.374.144.59.59 0 00.417-.157v-.388h-.427v.166zM11.029 30.999h-.199v.984h.69v-.167h-.49v-.817zM13.119 30.999h-.199v.984h.199v-.984zM15.161 31.656l-.403-.657h-.193v.984h.185v-.643l.395.643h.198v-.984h-.182v.657zM17.007 31.549h.49v-.167h-.49v-.216h.528v-.167h-.727v.984h.747v-.167h-.548v-.266zM21.484 31.387h-.388v-.388h-.198v.984h.198v-.43h.388v.43h.198v-.984h-.198v.388zM23.342 31.549h.492v-.167h-.492v-.216h.529v-.167h-.727v.984h.746v-.167h-.548v-.266zM25.861 31.549c.171-.027.258-.117.258-.274a.236.236 0 00-.096-.219.553.553 0 00-.288-.058h-.417v.984h.198v-.412h.039a.261.261 0 01.123.022.21.21 0 01.07.072l.215.313h.237l-.12-.192a.685.685 0 00-.218-.236zm-.2-.136h-.146v-.247h.156a.526.526 0 01.201.023c.014.013.026.029.033.046a.133.133 0 01-.005.111.128.128 0 01-.037.043.547.547 0 01-.201.023zM27.76 31.549h.49v-.167h-.49v-.216h.529v-.167h-.729v.984h.747v-.167h-.548v-.266z"/></symbol><symbol id="client3" viewBox="0 0 32 32"><path d="M5.467 31.103a.088.088 0 01.059.025l.153.161c-.119.13-.266.234-.431.305a1.532 1.532 0 01-.611.109 1.496 1.496 0 01-.574-.102 1.25 1.25 0 01-.712-.733 1.618 1.618 0 01-.098-.571c-.003-.195.033-.39.105-.573.067-.166.168-.317.297-.445.131-.126.287-.224.459-.29.189-.07.389-.104.591-.102.188-.004.375.027.549.093.152.063.291.15.412.257l-.128.171a.122.122 0 01-.033.031.084.084 0 01-.052.013.123.123 0 01-.056-.018l-.069-.046-.096-.058a.978.978 0 00-.302-.103 1.238 1.238 0 00-.228-.018 1.12 1.12 0 00-.425.077.96.96 0 00-.333.215.997.997 0 00-.216.343c-.054.145-.08.298-.078.452-.002.156.024.312.078.46.047.126.119.242.212.341a.863.863 0 00.318.212c.125.049.259.074.394.073.078.001.156-.004.234-.015a.87.87 0 00.354-.122c.054-.034.104-.072.151-.113a.115.115 0 01.073-.029zM9.888 30.296c.002.194-.033.386-.103.567-.062.165-.161.315-.288.44s-.282.224-.452.289a1.711 1.711 0 01-1.164 0 1.281 1.281 0 01-.741-.735 1.61 1.61 0 010-1.136c.065-.166.164-.317.291-.447.128-.121.281-.216.45-.279a1.677 1.677 0 011.164 0c.17.066.324.165.452.29.126.127.224.276.289.44.071.183.106.376.103.571zm-.402 0a1.313 1.313 0 00-.073-.456.898.898 0 00-.528-.556 1.23 1.23 0 00-.846 0 .901.901 0 00-.531.556 1.465 1.465 0 000 .912.888.888 0 00.531.554c.273.097.573.097.846 0a.884.884 0 00.528-.554c.051-.147.076-.301.073-.456zM12.905 30.774l.04.102a3.46 3.46 0 01.044-.102.933.933 0 01.05-.1l.978-1.694c.019-.029.036-.047.056-.053a.217.217 0 01.08-.009h.289v2.755h-.343v-2.026-.086a.753.753 0 010-.095l-.984 1.718c-.012.026-.033.047-.058.063s-.054.023-.084.023h-.056a.154.154 0 01-.141-.086l-1.013-1.729V31.668h-.331v-2.75h.289a.24.24 0 01.08.009c.024.011.043.03.054.053l.999 1.696c.02.031.036.064.05.098zM16.586 30.638v1.032h-.383v-2.752h.854a1.67 1.67 0 01.477.06.912.912 0 01.337.171.699.699 0 01.191.27.905.905 0 01.065.352.84.84 0 01-.071.352.744.744 0 01-.207.275.936.936 0 01-.339.182 1.498 1.498 0 01-.461.064l-.463-.007zm0-.296h.463a.992.992 0 00.297-.042.617.617 0 00.214-.119.477.477 0 00.13-.182.579.579 0 00.046-.232.522.522 0 00-.172-.412.766.766 0 00-.515-.148h-.463v1.134zM21.731 31.673h-.302a.133.133 0 01-.084-.026.164.164 0 01-.05-.064l-.26-.666h-1.307l-.27.666a.145.145 0 01-.048.062.132.132 0 01-.086.027h-.302l1.148-2.756h.398l1.164 2.756zm-1.895-1.023h1.08l-.456-1.122a1.828 1.828 0 01-.086-.259l-.044.144c-.013.044-.029.084-.042.117l-.452 1.12zM23.385 28.931a.16.16 0 01.057.049l1.675 2.077v-.097V28.918h.343v2.756h-.191a.173.173 0 01-.078-.016.2.2 0 01-.061-.051l-1.673-2.075a.753.753 0 010 .095v2.048h-.343v-2.756h.203a.163.163 0 01.069.013zM28.281 30.577v1.094h-.383v-1.094l-1.059-1.66h.343a.124.124 0 01.082.024.256.256 0 01.052.062l.662 1.071a1.256 1.256 0 01.117.245l.05-.119c.019-.043.04-.085.065-.126l.653-1.078a.274.274 0 01.05-.058.116.116 0 01.082-.027h.346l-1.06 1.667zM12.715 24.293c.167.02.335.036.505.051 2.583-1.101 4.768-2.902 6.282-5.18s2.29-4.929 2.231-7.624l-2.846-2.712c.579 2.869.308 5.836-.782 8.567s-2.956 5.12-5.389 6.898z"/><path d="M11.699 24.167l.077.015c2.6-1.772 4.583-4.247 5.691-7.104s1.292-5.965.526-8.922l-4.054-3.862c1.64 3.175 2.3 6.728 1.903 10.246s-1.833 6.857-4.143 9.628zM25.448 14.725c-.689 2.961-2.362 5.632-4.77 7.616a15.094 15.094 0 01-2.266 1.55c1.961-.549 3.764-1.52 5.269-2.838s2.672-2.947 3.412-4.763l-1.644-1.565z"/><path d="M24.803 14.289l-2.341-2.23c-.045 2.543-.804 5.028-2.197 7.197s-3.372 3.943-5.729 5.137h.012c.525 0 1.05-.03 1.571-.089 2.203-.857 4.148-2.219 5.664-3.967s2.553-3.825 3.021-6.047zM12.038 2.664L9.245 0C6.748.919 4.601 2.535 3.084 4.636S.752 9.225.744 11.775c.009 2.818 1.005 5.552 2.829 7.77s4.372 3.793 7.242 4.476c2.561-2.973 4.061-6.647 4.281-10.488s-.851-7.648-3.058-10.869zM31.256 13.878c-.01-3.343-1.408-6.546-3.89-8.91s-5.843-3.696-9.352-3.706a13.655 13.655 0 00-4.741.841l17.099 16.291c.586-1.44.885-2.971.884-4.515z"/></symbol><symbol id="client5" viewBox="0 0 32 32"><path d="M2.434 24.557a.852.852 0 01.188.548.862.862 0 01-.291.692 1.258 1.258 0 01-.845.253H0v-3.474h1.455c.287-.019.572.062.806.231a.793.793 0 01.282.65.8.8 0 01-.169.531.784.784 0 01-.443.271.842.842 0 01.502.297zm-1.743-.524h.622a.587.587 0 00.396-.115.41.41 0 00.133-.339.433.433 0 00-.132-.34.6.6 0 00-.407-.117H.691v.911zm1.079 1.332c.05-.044.089-.098.115-.159s.037-.128.032-.194a.44.44 0 00-.151-.357.642.642 0 00-.423-.126H.691v.955h.661a.652.652 0 00.417-.12zM5.409 26.051l-.81-1.358h-.304v1.358h-.696v-3.474h1.318c.332-.023.661.082.918.295a1.113 1.113 0 01.098 1.438 1.07 1.07 0 01-.629.353l.862 1.388h-.757zM4.295 24.22h.57c.396 0 .593-.175.593-.526a.517.517 0 00-.146-.39.618.618 0 00-.448-.141h-.576l.007 1.057zM9.215 25.352H7.827l-.245.699h-.73l1.274-3.435h.789l1.269 3.435h-.73l-.24-.699zm-.186-.526l-.507-1.466-.507 1.466h1.014zM13.98 26.051h-.691l-1.55-2.362v2.362h-.69v-3.474h.69l1.55 2.376v-2.376h.691v3.474zM17.925 25.219a1.501 1.501 0 01-.625.613 2.025 2.025 0 01-.972.219h-1.231v-3.474h1.231c.336-.009.67.065.972.214.265.134.483.345.625.606a2.032 2.032 0 010 1.822zm-.791-.083a1.278 1.278 0 000-1.658 1.196 1.196 0 00-.865-.295h-.48v2.249h.48c.316.02.627-.086.865-.295zM9.648 3.254s8.923 3.382 8.734 8.277v8.278s-8.916-3.384-8.73-8.278l-.003-8.277zM26.331 17.871A12.198 12.198 0 0132 15.773v-2.591a11.643 11.643 0 00-5.669 4.689z"/><path d="M25.318 18.652A12.14 12.14 0 0132 12.639V5.172S19.293 9.99 19.561 16.96v11.786s.566-.215 1.457-.619c0-.377 0-.757.041-1.139a12.261 12.261 0 014.259-8.336z"/><path d="M24.11 23.03c.067-.817.216-1.626.445-2.413a11.41 11.41 0 00-2.691 7.119 36.68 36.68 0 002.444-1.293 12.251 12.251 0 01-.198-3.413zM24.615 23.073a11.682 11.682 0 00.157 3.09c3.472-2.086 7.373-5.308 7.222-9.203v-.339a11.372 11.372 0 00-6.605 3.099 11.679 11.679 0 00-.774 3.353z"/></symbol><symbol id="clock" viewBox="0 0 32 32"><path fill="var(--color3, #212121)" d="M31.296 15.301C31.295 6.849 24.441-.002 15.988 0S.685 6.855.687 15.308c.002 6.788 4.422 12.543 10.541 14.545l.108.031a.667.667 0 00.529-.065.636.636 0 00.283-.357l3.865-12.25a1.913 1.913 0 10-.852-3.63l.011-.005-5.106-5.107a.638.638 0 00-.902.902l5.103 5.109a1.847 1.847 0 00-.191.826c0 .602.283 1.137.723 1.48l.004.003-3.682 11.673C3.843 25.782.117 17.709 2.797 10.431S13.551-.573 20.829 2.108c7.278 2.681 11.004 10.754 8.323 18.032-1.345 3.581-4.003 6.406-7.374 7.938l-.088.036-.398-1.874a.639.639 0 00-1.05-.343l.001-.001-3.837 3.426a.637.637 0 00.227 1.083l.005.001 4.899 1.563a.637.637 0 00.818-.744l.001.004-.391-1.839c5.528-2.374 9.329-7.772 9.329-14.057v-.034.002zm-15.304-.637a.638.638 0 010 1.276.638.638 0 010-1.276zm2.1 14.864l2.184-1.948.603 2.84-2.787-.892z"/><path fill="var(--color2, #2196f3)" d="M15.354 3.185V4.46a.638.638 0 001.276 0V3.185a.638.638 0 10-1.276 0zM3.876 14.664a.638.638 0 000 1.276h1.275a.638.638 0 000-1.276H3.876zm24.232 1.275a.638.638 0 000-1.276h-1.275a.638.638 0 000 1.276h1.275z"/></symbol><symbol id="close" viewBox="0 0 32 32"><path d="M32 3.223L28.777 0 16 12.777 3.223 0 0 3.223 12.777 16 0 28.777 3.223 32 16 19.223 28.777 32 32 28.777 19.223 16 32 3.223z"/></symbol><symbol id="diagram" viewBox="0 0 32 32"><path fill="var(--color2, #2196f3)" d="M14.926 14.965h1.066v4.798h-1.066v-4.798zm4.264 2.132h1.066v2.665H19.19v-2.665zm-8.529 1.599h1.066v1.066h-1.066v-1.066zm-3.198-.533h1.066v1.6H7.463v-1.6z"/><path fill="var(--color3, #212121)" d="M1.599 28.291h25.586a1.6 1.6 0 001.599-1.599V24.56a1.6 1.6 0 00-1.599-1.599h-.533V9.667l3.028-2.868a1.608 1.608 0 10-.742-.752l-.004-.01-2.281 2.162v-1.23a1.6 1.6 0 00-1.599-1.599H3.731a1.6 1.6 0 00-1.599 1.599v15.992h-.533A1.6 1.6 0 000 24.56v2.132a1.6 1.6 0 001.599 1.599zM30.384 4.837a.533.533 0 010 1.066.533.533 0 010-1.066zM3.198 6.969c0-.294.239-.533.533-.533h21.323c.294 0 .533.239.533.533v2.239l-1.066 1.013V8.036a.534.534 0 00-.534-.534H4.798a.534.534 0 00-.534.533v13.327c0 .294.239.533.534.533h19.189a.534.534 0 00.534-.533v-9.675l1.066-1.01V22.96H3.198V6.969zm4.798 6.93h-.005a1.6 1.6 0 101.112 2.748l1.853.93a.533.533 0 00.636-.123l3.939-4.431 3.872 2.902a.534.534 0 00.686-.039l3.365-3.188v8.131H5.331V8.568h18.123v2.661l-3.771 3.572-3.904-2.927a.534.534 0 00-.718.071v.001l-3.993 4.493-1.493-.746c.01-.056.017-.123.02-.19V15.5a1.6 1.6 0 00-1.599-1.599zm.533 1.599a.533.533 0 01-1.066 0 .533.533 0 011.066 0zm3.198 8.528h5.33v.533a.533.533 0 01-.533.533h-4.265a.533.533 0 01-.533-.533v-.533zm-10.66.534c0-.294.238-.533.533-.533h9.062v.533a1.6 1.6 0 001.599 1.599h4.265a1.6 1.6 0 001.599-1.599v-.533h9.062c.294 0 .533.239.533.533v2.132a.533.533 0 01-.533.533H1.601a.533.533 0 01-.533-.533V24.56z"/></symbol><symbol id="envelope" viewBox="0 0 43 32"><path d="M38.667 0H4C1.794 0 0 1.675 0 3.734v22.404c0 2.059 1.794 3.734 4 3.734h34.667c2.206 0 4-1.675 4-3.734V3.734c0-2.059-1.794-3.734-4-3.734zm0 2.489c.181 0 .353.035.511.096L21.334 17.022 3.49 2.585c.158-.061.33-.096.511-.096h34.667zm0 24.894H4c-.736 0-1.333-.558-1.333-1.245V5.216L20.46 19.611c.251.203.563.304.874.304s.622-.101.874-.304L40.001 5.216v20.922c0 .687-.598 1.245-1.333 1.245z"/></symbol><symbol id="icon-send" viewBox="0 0 32 32"><path d="M32 0L0 18l10.227 3.787L26 7 14.003 23.187l.009.003-.012-.003V32l5.735-6.691L27.002 28l4.999-28z"/></symbol><symbol id="logo-fb" viewBox="0 0 32 32"><path d="M20.528 5.312h2.923V.224A36.483 36.483 0 0019.343 0h-.157.008c-4.213 0-7.099 2.65-7.099 7.52V12H7.449v5.688h4.646V32h5.698V17.69h4.462l.707-5.69h-5.168V8.08c0-1.643.443-2.768 2.734-2.768z"/></symbol><symbol id="logo-in" viewBox="0 0 32 32"><path d="M31.992 32H32V20.262c0-5.741-1.235-10.163-7.947-10.163-3.227 0-5.392 1.77-6.277 3.45h-.093v-2.914h-6.365v21.363h6.627V21.42c0-2.786.528-5.48 3.978-5.48 3.398 0 3.45 3.179 3.45 5.658V32h6.619zM.528 10.635h6.635V32H.528V10.635zM3.843 0A3.843 3.843 0 000 3.843c0 2.12 1.722 3.878 3.843 3.878 2.12 0 3.842-1.757 3.842-3.878S5.965.002 3.844 0z"/></symbol><symbol id="logo-insta" viewBox="0 0 32 32"><path d="M31.968 9.408c-.074-1.701-.349-2.869-.742-3.882a7.839 7.839 0 00-1.85-2.837l-.001-.001A7.906 7.906 0 0026.597.861l-.054-.018C25.524.449 24.362.176 22.661.101 20.949.019 20.405 0 16.059 0c-4.344 0-4.888.019-6.595.094-1.699.074-2.869.349-3.88.742a7.847 7.847 0 00-2.839 1.85l-.001.001A7.9 7.9 0 00.919 5.465l-.018.054C.506 6.538.232 7.7.157 9.401c-.082 1.712-.101 2.256-.101 6.602 0 4.344.019 4.888.094 6.595.075 1.701.35 2.869.744 3.882a7.915 7.915 0 001.849 2.837l.001.001c.8.813 1.77 1.443 2.832 1.843 1.019.395 2.182.67 3.882.744 1.707.075 2.251.094 6.595.094 4.346 0 4.89-.019 6.595-.094 1.701-.074 2.869-.349 3.882-.742a8.237 8.237 0 004.664-4.628l.019-.055c.394-1.019.669-2.182.744-3.882.075-1.707.093-2.251.093-6.595s-.006-4.888-.08-6.595zm-2.88 13.066c-.07 1.563-.333 2.406-.55 2.97a5.341 5.341 0 01-3.004 3.024l-.036.012c-.56.219-1.411.482-2.968.55-1.688.075-2.194.094-6.464.094-4.269 0-4.782-.019-6.464-.094-1.563-.069-2.406-.331-2.97-.55a4.953 4.953 0 01-1.836-1.192l-.001-.001a4.978 4.978 0 01-1.184-1.803L3.6 25.45c-.218-.563-.48-1.413-.549-2.97-.075-1.688-.094-2.195-.094-6.464 0-4.27.019-4.784.094-6.464.069-1.563.331-2.406.549-2.97a4.897 4.897 0 011.198-1.837l.002-.002a4.972 4.972 0 011.806-1.182l.034-.011c.56-.219 1.411-.48 2.968-.55 1.688-.074 2.195-.093 6.464-.093 4.275 0 4.782.019 6.464.093 1.563.069 2.406.331 2.97.55a4.91 4.91 0 011.837 1.194c.531.52.938 1.144 1.195 1.84.218.56.48 1.411.549 2.968.075 1.688.094 2.194.094 6.464 0 4.269-.019 4.768-.094 6.458z"/><path d="M16.059 7.782a8.223 8.223 0 00-8.219 8.221 8.223 8.223 0 0016.442.008v-.009a8.223 8.223 0 00-8.221-8.221zm0 13.552a5.333 5.333 0 01.001-10.666h.001a5.334 5.334 0 110 10.668zM26.525 7.458a1.92 1.92 0 01-3.84 0 1.92 1.92 0 013.84 0z"/></symbol><symbol id="logo-twitter" viewBox="0 0 32 32"><path d="M32 6.078c-1.1.493-2.376.857-3.713 1.028l-.068.007a6.556 6.556 0 002.873-3.579l.013-.046a12.88 12.88 0 01-4.076 1.573l-.084.014A6.558 6.558 0 0015.6 9.557v.004c0 .52.043 1.021.152 1.496-5.454-.266-10.28-2.88-13.522-6.861a6.524 6.524 0 00-.902 3.313v.001a6.575 6.575 0 002.914 5.453 6.453 6.453 0 01-2.994-.823l.033.017v.072a6.592 6.592 0 005.213 6.437l.043.008a6.4 6.4 0 01-1.668.216h-.055.003c-.419 0-.843-.024-1.242-.112.85 2.598 3.261 4.509 6.13 4.57a13.093 13.093 0 01-8.122 2.8H1.57h.001-.062c-.531 0-1.055-.034-1.569-.099l.061.006c2.826 1.846 6.287 2.944 10.004 2.944h.063-.003c12.072 0 18.672-10 18.672-18.669 0-.288-.01-.57-.024-.848a13.203 13.203 0 003.258-3.355l.03-.047z"/></symbol>z<symbol id="modal-tel" viewBox="0 0 32 32"><path d="M24.882 19.774l-3.268-.373a2.552 2.552 0 00-2.11.732l-2.368 2.368c-3.669-1.894-6.585-4.81-8.427-8.372l-.051-.108 2.382-2.377a2.552 2.552 0 00.731-2.122l.001.012-.373-3.243a2.578 2.578 0 00-2.557-2.276H6.613c-1.454 0-2.663 1.209-2.574 2.661.683 10.987 9.47 19.762 20.444 20.444 1.452.089 2.663-1.12 2.663-2.574V22.32v-.012a2.549 2.549 0 00-2.253-2.532l-.012-.001z"/></symbol><symbol id="modal-name" viewBox="0 0 32 32"><path d="M16 16a5.333 5.333 0 100-10.666A5.333 5.333 0 1016 16zm0 2.667c-3.561 0-10.667 1.787-10.667 5.333v1.333c0 .732.599 1.333 1.333 1.333h18.667c.732 0 1.333-.601 1.333-1.333V24c0-3.547-7.108-5.333-10.667-5.333z"/></symbol><symbol id="modal-mail" viewBox="0 0 32 32"><path d="M26.667 5.333H5.334A2.662 2.662 0 002.682 8l-.014 16c0 1.467 1.2 2.667 2.667 2.667h21.333c1.467 0 2.667-1.2 2.667-2.667V8c0-1.467-1.2-2.667-2.667-2.667zm-.534 5.668l-9.426 5.892a1.343 1.343 0 01-1.421-.004l.006.003L5.866 11A1.133 1.133 0 117.07 9.083l-.004-.003 8.933 5.586 8.933-5.588a1.132 1.132 0 111.204 1.916l-.005.003z"/></symbol><symbol id="smartphone" viewBox="0 0 21 32"><path d="M18.133 0H3.2C1.436 0 0 1.34 0 2.987v25.89c0 1.647 1.436 2.987 3.2 2.987h14.933c1.764 0 3.2-1.34 3.2-2.987V2.987c0-1.647-1.436-2.987-3.2-2.987zM3.2 1.99h14.933c.589 0 1.067.448 1.067.996v20.911H2.133V2.986c0-.548.478-.996 1.067-.996zm14.933 27.883H3.2c-.589 0-1.067-.448-1.067-.996V25.89H19.2v2.987c0 .548-.478.994-1.067.994z"/><path d="M5.022 27.177a.947.947 0 010 1.407l-.001.001c-.198.182-.464.293-.755.293s-.557-.111-.756-.294l.001.001a.947.947 0 010-1.407l.001-.001c.198-.182.464-.293.755-.293s.557.111.756.294l-.001-.001z"/></symbol></defs></svg>